<svg version="1.1" id="Layer_1" xmlns="http://www.w3.org/2000/svg" xmlns:xlink="http://www.w3.org/1999/xlink" x="0px" y="0px"
	 width="100%" viewBox="0 0 1804 1804" enable-background="new 0 0 1804 1804" xml:space="preserve">
<path fill="#0C0C0C" opacity="1.000000" stroke="none" 
	d="
M1.000000,466.000000 
	C1.000000,310.666656 1.000000,155.833328 1.000000,1.000000 
	C602.333313,1.000000 1203.666626,1.000000 1805.000000,1.000000 
	C1805.000000,602.333313 1805.000000,1203.666626 1805.000000,1805.000000 
	C1203.666626,1805.000000 602.333313,1805.000000 1.000000,1805.000000 
	C1.000000,1358.833374 1.000000,912.666687 1.000000,466.000000 
M465.500183,5.295065 
	C312.233368,5.295065 158.966553,5.295065 5.519775,5.295065 
	C5.519775,604.148071 5.519775,1202.378174 5.519775,1800.666016 
	C604.136658,1800.666016 1202.502075,1800.666016 1800.691650,1800.666016 
	C1800.691650,1202.094238 1800.691650,603.858215 1800.691650,5.295073 
	C1355.754517,5.295073 911.127380,5.295073 465.500183,5.295065 
z"/>
<path fill="#FFFEFE" opacity="1.000000" stroke="none" 
	d="
M466.000183,5.295069 
	C911.127380,5.295073 1355.754517,5.295073 1800.691650,5.295073 
	C1800.691650,603.858215 1800.691650,1202.094238 1800.691650,1800.666016 
	C1202.502075,1800.666016 604.136658,1800.666016 5.519775,1800.666016 
	C5.519775,1202.378174 5.519775,604.148071 5.519775,5.295065 
	C158.966553,5.295065 312.233368,5.295065 466.000183,5.295069 
M211.433548,1351.098633 
	C216.000107,1353.472534 220.413742,1356.222412 225.160522,1358.153198 
	C242.617477,1365.254028 261.113159,1366.313232 279.622162,1366.531738 
	C295.940125,1366.724487 312.266418,1366.031860 328.589050,1366.030640 
	C726.723938,1366.000732 1124.858887,1366.063965 1522.993774,1365.886719 
	C1547.783569,1365.875610 1572.604370,1364.517456 1597.351074,1362.881348 
	C1614.816772,1361.726562 1631.984619,1358.207031 1648.222778,1351.174561 
	C1667.158569,1342.973877 1679.494629,1328.997192 1684.951782,1309.075195 
	C1690.832275,1287.607544 1691.031616,1265.598877 1690.664307,1243.599976 
	C1690.169312,1213.957275 1688.694702,1184.321045 1688.678345,1154.681519 
	C1688.523193,872.370789 1688.571289,590.059937 1688.624756,307.749115 
	C1688.628418,288.091980 1689.290039,268.435577 1689.382568,248.777588 
	C1689.507202,222.306015 1690.444946,195.779358 1685.029663,169.599686 
	C1680.180298,146.156570 1667.553345,128.878815 1644.453125,121.189957 
	C1631.907227,117.014130 1618.798096,113.322044 1605.708252,112.231926 
	C1575.373047,109.705650 1544.898193,107.671364 1514.474731,107.597290 
	C1375.327271,107.258499 1236.178223,107.750984 1097.029663,107.783722 
	C828.551086,107.846893 560.072449,107.787079 291.593842,107.832268 
	C273.085480,107.835388 254.633591,108.790619 236.487610,112.986626 
	C207.599243,119.666634 189.024460,137.115967 180.819885,165.674698 
	C174.725769,186.887375 173.339020,208.706512 173.608810,230.500168 
	C174.033432,264.799286 176.264404,299.076447 176.663940,333.375305 
	C177.119965,372.522858 176.443924,411.684265 176.194366,450.839203 
	C175.821640,509.319214 175.362671,567.798706 174.995026,626.278748 
	C174.688110,675.096863 174.236267,723.915527 174.245880,772.733887 
	C174.262604,857.718323 174.388351,942.703796 174.854019,1027.686768 
	C175.131531,1078.328247 175.699799,1128.976929 176.971359,1179.601318 
	C177.941483,1218.224365 180.409561,1256.807373 181.849167,1295.421631 
	C182.714172,1318.623413 191.916489,1337.126709 211.433548,1351.098633 
M934.014404,1521.586670 
	C927.794067,1536.511597 925.868835,1552.121826 927.303528,1568.087280 
	C928.985840,1586.808105 935.150757,1603.817871 948.609436,1617.477539 
	C964.252502,1633.353882 983.767273,1638.662842 1005.501709,1638.037109 
	C1036.549438,1637.143066 1062.355591,1619.250732 1072.395386,1590.557617 
	C1080.170776,1568.335938 1080.429443,1545.762085 1072.586914,1523.464722 
	C1067.667725,1509.479004 1059.168335,1497.811646 1046.811401,1489.368408 
	C1015.749512,1468.144775 956.606934,1470.468262 934.014404,1521.586670 
M209.106598,1580.267822 
	C212.402451,1594.288696 218.236816,1607.018921 228.478943,1617.377808 
	C244.285309,1633.364380 263.917328,1638.747681 285.827606,1638.021973 
	C316.573822,1637.003662 341.593231,1619.684814 352.128754,1591.189575 
	C359.174164,1572.133789 359.981567,1552.520874 355.332794,1532.729248 
	C351.981659,1518.462280 345.452515,1505.875977 334.649658,1495.851562 
	C316.583527,1479.087524 294.758728,1474.678223 271.110931,1477.872437 
	C246.683426,1481.171997 228.430450,1493.973267 216.923676,1515.798462 
	C206.311539,1535.926636 204.867844,1557.375000 209.106598,1580.267822 
M54.562557,1568.499878 
	C54.562557,1590.918335 54.562557,1613.336670 54.562557,1635.685303 
	C66.756821,1635.685303 78.180580,1635.685303 90.191544,1635.685303 
	C90.191544,1613.972534 90.191544,1592.592407 90.191544,1571.313721 
	C109.711235,1571.313721 128.635101,1571.313721 148.165497,1571.313721 
	C148.165497,1592.999268 148.165497,1614.378296 148.165497,1635.792725 
	C160.050354,1635.792725 171.322800,1635.792725 182.874161,1635.792725 
	C182.874161,1583.489014 182.874161,1531.451904 182.874161,1479.302734 
	C171.153458,1479.302734 159.756119,1479.302734 147.771347,1479.302734 
	C147.771347,1499.685547 147.771347,1519.731689 147.771347,1539.715332 
	C128.250153,1539.715332 109.321526,1539.715332 89.825470,1539.715332 
	C89.825470,1519.370972 89.825470,1499.323853 89.825470,1479.289795 
	C77.819992,1479.289795 66.387634,1479.289795 54.562302,1479.289795 
	C54.562302,1508.894409 54.562302,1538.197144 54.562557,1568.499878 
M1517.979736,1563.500000 
	C1517.979736,1587.575073 1517.979736,1611.650146 1517.979736,1635.785400 
	C1529.986816,1635.785400 1541.246216,1635.785400 1553.089111,1635.785400 
	C1553.089111,1615.340088 1553.089111,1595.121582 1553.089111,1575.019043 
	C1558.989868,1575.019043 1564.345947,1574.596436 1569.607788,1575.120239 
	C1577.104980,1575.866577 1582.633179,1579.946655 1585.623047,1586.973145 
	C1586.984619,1590.173218 1588.024292,1593.528076 1588.987793,1596.876587 
	C1592.343018,1608.536621 1595.492920,1620.257446 1599.019287,1631.864624 
	C1599.517822,1633.505981 1601.635986,1635.792114 1603.062134,1635.834351 
	C1614.182861,1636.163452 1625.317871,1636.016357 1636.539917,1636.016357 
	C1632.111206,1619.936523 1627.946655,1604.200806 1623.414917,1588.571533 
	C1620.250610,1577.658447 1615.108276,1567.958862 1604.204468,1562.587891 
	C1608.531250,1559.735840 1612.858887,1557.468018 1616.493042,1554.383545 
	C1630.109497,1542.826416 1633.572632,1527.820312 1629.713867,1511.012817 
	C1625.805908,1493.989746 1613.607300,1485.291382 1597.554077,1481.122437 
	C1582.695312,1477.263672 1567.486816,1477.629761 1552.350952,1478.145996 
	C1540.960327,1478.534546 1529.598389,1479.767456 1517.979736,1480.642822 
	C1517.979736,1508.571289 1517.979736,1535.535645 1517.979736,1563.500000 
M1415.512939,1596.016968 
	C1425.821167,1596.016968 1436.129395,1596.016968 1446.633667,1596.016968 
	C1450.257812,1608.164307 1453.681763,1619.968506 1457.386230,1631.683960 
	C1457.910767,1633.342773 1459.769897,1635.773071 1461.066528,1635.808350 
	C1472.871948,1636.128418 1484.689453,1635.996216 1497.126831,1635.996216 
	C1480.873413,1583.446899 1464.769897,1531.382446 1448.561157,1478.977417 
	C1434.474487,1478.977417 1420.490112,1479.095459 1406.510498,1478.895264 
	C1402.964111,1478.844360 1401.364380,1479.803955 1400.288330,1483.371826 
	C1387.366333,1526.223145 1374.246094,1569.014648 1361.193115,1611.826538 
	C1358.788696,1619.712646 1356.453125,1627.619751 1353.934814,1636.020874 
	C1364.254028,1636.020874 1373.901855,1636.108154 1383.547363,1635.994629 
	C1391.981079,1635.895386 1390.447510,1637.648682 1392.976562,1628.710205 
	C1396.044922,1617.864990 1399.034546,1606.997559 1402.092285,1596.016968 
	C1406.537720,1596.016968 1410.528320,1596.016968 1415.512939,1596.016968 
M1201.504517,1632.094238 
	C1201.504517,1623.806885 1201.504517,1615.519653 1201.504517,1606.791748 
	C1179.738525,1606.791748 1158.643921,1606.791748 1137.320557,1606.791748 
	C1137.320557,1594.282959 1137.320557,1582.231934 1137.320557,1569.631592 
	C1156.532471,1569.631592 1175.437622,1569.631592 1194.516113,1569.631592 
	C1194.516113,1559.850464 1194.516113,1550.621948 1194.516113,1540.938721 
	C1175.288208,1540.938721 1156.372314,1540.938721 1137.259521,1540.938721 
	C1137.259521,1529.906982 1137.259521,1519.333252 1137.259521,1508.155518 
	C1157.560059,1508.155518 1177.619873,1508.155518 1197.891968,1508.155518 
	C1197.891968,1498.169434 1197.891968,1488.789307 1197.891968,1479.296387 
	C1165.699829,1479.296387 1133.816162,1479.296387 1101.832031,1479.296387 
	C1101.832031,1531.652344 1101.832031,1583.684326 1101.832031,1636.016602 
	C1134.380005,1636.016602 1166.524902,1636.042236 1198.668701,1635.890381 
	C1199.613770,1635.885986 1200.549927,1634.014038 1201.504517,1632.094238 
M542.629150,1569.773315 
	C558.792969,1569.784180 574.957336,1569.857910 591.119568,1569.704956 
	C592.672852,1569.690186 595.526062,1568.315430 595.556885,1567.489380 
	C595.883118,1558.746338 595.758972,1549.986450 595.758972,1540.753662 
	C576.082947,1540.753662 557.171204,1540.753662 538.407654,1540.753662 
	C538.407654,1529.680420 538.407654,1519.112061 538.407654,1508.107666 
	C558.730042,1508.107666 578.652588,1508.107666 598.882141,1508.107666 
	C598.882141,1498.269775 598.882141,1488.878296 598.882141,1479.234131 
	C566.723938,1479.234131 534.809570,1479.234131 502.816528,1479.234131 
	C502.816528,1531.516724 502.816528,1583.583496 502.816528,1635.755127 
	C536.110962,1635.755127 569.044739,1635.755127 602.223633,1635.755127 
	C602.223633,1626.089722 602.223633,1616.691772 602.223633,1606.779297 
	C580.760071,1606.779297 559.670227,1606.779297 538.084045,1606.779297 
	C538.084045,1594.819702 538.017639,1583.368774 538.237427,1571.923218 
	C538.251648,1571.181763 540.469116,1570.482422 542.629150,1569.773315 
M1267.689697,1593.791992 
	C1258.541138,1583.912231 1255.519409,1571.743652 1255.335693,1558.816040 
	C1254.882324,1526.917114 1273.570190,1506.970337 1302.603760,1506.802246 
	C1313.373291,1506.739746 1324.156860,1509.119019 1335.531738,1510.454956 
	C1337.566772,1502.378906 1339.897827,1493.128174 1342.258545,1483.760254 
	C1326.822510,1477.291748 1311.260132,1476.162842 1295.564697,1477.203613 
	C1273.737427,1478.651001 1254.234497,1486.069580 1238.972778,1502.333252 
	C1220.783691,1521.716431 1216.035522,1545.372925 1218.567261,1570.927124 
	C1220.645020,1591.899292 1228.917114,1610.070923 1246.536011,1622.371094 
	C1274.827637,1642.121948 1305.875854,1641.142090 1337.545288,1632.591919 
	C1338.539551,1632.323486 1340.052979,1630.787354 1339.934326,1630.072998 
	C1338.478638,1621.309692 1336.762695,1612.589722 1335.135254,1603.970093 
	C1329.107666,1605.292969 1323.968994,1606.807251 1318.721558,1607.502686 
	C1300.130859,1609.966553 1282.371582,1608.827271 1267.689697,1593.791992 
M396.468384,1508.810669 
	C399.246643,1508.810669 402.024902,1508.810669 405.444641,1508.810669 
	C405.444641,1551.504395 405.444641,1593.557495 405.444641,1635.649414 
	C417.658417,1635.649414 429.216888,1635.649414 441.241882,1635.649414 
	C441.241882,1593.189331 441.241882,1551.120850 441.241882,1508.554077 
	C455.625732,1508.554077 469.540680,1508.554077 483.460785,1508.554077 
	C483.460785,1498.473022 483.460785,1488.900391 483.460785,1479.396484 
	C443.227051,1479.396484 403.367188,1479.396484 363.598083,1479.396484 
	C363.598083,1489.394409 363.598083,1498.954956 363.598083,1508.810669 
	C374.513336,1508.810669 384.993530,1508.810669 396.468384,1508.810669 
M662.006042,1509.500000 
	C662.006042,1499.421631 662.006042,1489.343262 662.006042,1479.390869 
	C649.744995,1479.390869 638.206787,1479.390869 626.671265,1479.390869 
	C626.671265,1531.715454 626.671265,1583.602051 626.671265,1635.726807 
	C659.334351,1635.726807 691.703003,1635.726807 724.233459,1635.726807 
	C724.233459,1625.844116 724.233459,1616.278442 724.233459,1606.036621 
	C703.374695,1606.036621 682.851807,1606.036621 662.006042,1606.036621 
	C662.006042,1573.738525 662.006042,1542.119263 662.006042,1509.500000 
M1692.015381,1492.508667 
	C1692.015381,1488.089233 1692.015381,1483.669922 1692.015381,1479.258179 
	C1679.877930,1479.258179 1668.456787,1479.258179 1656.836426,1479.258179 
	C1656.836426,1531.583740 1656.836426,1583.627441 1656.836426,1635.771729 
	C1689.453369,1635.771729 1721.710938,1635.771729 1754.607544,1635.771729 
	C1754.607544,1627.401489 1754.427124,1619.274292 1754.684814,1611.161133 
	C1754.811157,1607.185425 1753.444702,1606.079956 1749.542847,1606.122681 
	C1732.388062,1606.310303 1715.229858,1606.196289 1698.072998,1606.191772 
	C1696.158813,1606.191284 1694.244507,1606.191772 1692.015625,1606.191772 
	C1692.015625,1568.085938 1692.015625,1530.795532 1692.015381,1492.508667 
M905.179688,1523.500000 
	C905.179688,1508.751221 905.179688,1494.002441 905.179688,1479.360229 
	C892.989685,1479.360229 881.590332,1479.360229 869.983276,1479.360229 
	C869.983276,1482.062256 869.983337,1484.384155 869.983276,1486.705933 
	C869.982666,1515.870361 870.015625,1545.034790 869.944397,1574.198975 
	C869.933838,1578.516235 869.680298,1582.865479 869.111206,1587.142822 
	C867.051453,1602.627075 859.915955,1608.734741 844.306824,1608.163696 
	C838.753723,1607.960571 833.228943,1606.981934 827.508911,1606.336914 
	C826.354004,1614.542603 825.303894,1622.624146 824.037781,1630.671875 
	C823.576965,1633.601074 824.563538,1634.825562 827.408691,1635.475464 
	C842.099121,1638.830566 856.774902,1639.308960 871.400391,1635.351929 
	C886.584473,1631.243652 896.856628,1621.545410 901.146851,1606.514282 
	C903.449219,1598.448120 904.758789,1589.877686 905.004639,1581.490479 
	C905.561035,1562.508301 905.179688,1543.498535 905.179688,1523.500000 
z"/>
<path fill="#EB1D26" opacity="1.000000" stroke="none" 
	d="
M211.133789,1350.899414 
	C191.916489,1337.126709 182.714172,1318.623413 181.849167,1295.421631 
	C180.409561,1256.807373 177.941483,1218.224365 176.971359,1179.601318 
	C175.699799,1128.976929 175.131531,1078.328247 174.854019,1027.686768 
	C174.388351,942.703796 174.262604,857.718323 174.245880,772.733887 
	C174.236267,723.915527 174.688110,675.096863 174.995026,626.278748 
	C175.362671,567.798706 175.821640,509.319214 176.194366,450.839203 
	C176.443924,411.684265 177.119965,372.522858 176.663940,333.375305 
	C176.264404,299.076447 174.033432,264.799286 173.608810,230.500168 
	C173.339020,208.706512 174.725769,186.887375 180.819885,165.674698 
	C189.024460,137.115967 207.599243,119.666634 236.487610,112.986626 
	C254.633591,108.790619 273.085480,107.835388 291.593842,107.832268 
	C560.072449,107.787079 828.551086,107.846893 1097.029663,107.783722 
	C1236.178223,107.750984 1375.327271,107.258499 1514.474731,107.597290 
	C1544.898193,107.671364 1575.373047,109.705650 1605.708252,112.231926 
	C1618.798096,113.322044 1631.907227,117.014130 1644.453125,121.189957 
	C1667.553345,128.878815 1680.180298,146.156570 1685.029663,169.599686 
	C1690.444946,195.779358 1689.507202,222.306015 1689.382568,248.777588 
	C1689.290039,268.435577 1688.628418,288.091980 1688.624756,307.749115 
	C1688.571289,590.059937 1688.523193,872.370789 1688.678345,1154.681519 
	C1688.694702,1184.321045 1690.169312,1213.957275 1690.664307,1243.599976 
	C1691.031616,1265.598877 1690.832275,1287.607544 1684.951782,1309.075195 
	C1679.494629,1328.997192 1667.158569,1342.973877 1648.222778,1351.174561 
	C1631.984619,1358.207031 1614.816772,1361.726562 1597.351074,1362.881348 
	C1572.604370,1364.517456 1547.783569,1365.875610 1522.993774,1365.886719 
	C1124.858887,1366.063965 726.723938,1366.000732 328.589050,1366.030640 
	C312.266418,1366.031860 295.940125,1366.724487 279.622162,1366.531738 
	C261.113159,1366.313232 242.617477,1365.254028 225.160522,1358.153198 
	C220.413742,1356.222412 216.000107,1353.472534 211.133789,1350.899414 
M1130.500000,171.810715 
	C921.679749,171.810730 712.859436,171.834900 504.039185,171.796814 
	C436.716156,171.784531 369.393066,171.534897 302.070129,171.576767 
	C290.267639,171.584106 278.404053,171.912811 266.678955,173.143539 
	C251.483826,174.738495 241.416473,183.198853 236.999542,198.142548 
	C232.596695,213.038528 232.041199,228.334671 232.039337,243.663483 
	C231.999344,573.309753 231.981033,902.955994 232.134506,1232.602295 
	C232.139526,1243.365967 233.486450,1254.206787 235.127411,1264.870239 
	C236.756943,1275.459473 241.301590,1284.886108 250.011230,1291.789062 
	C258.819763,1298.770264 269.247681,1302.186401 280.068970,1302.794922 
	C303.648285,1304.121216 327.294861,1305.164185 350.899658,1304.922485 
	C392.206635,1304.499390 433.499695,1302.335083 474.804321,1302.144409 
	C541.119019,1301.838257 607.438660,1302.494507 673.755676,1302.842163 
	C718.242432,1303.075317 762.728027,1303.502808 807.214478,1303.798828 
	C861.868591,1304.162354 916.522766,1304.541382 971.177429,1304.797852 
	C1016.504700,1305.010620 1061.833984,1305.323486 1107.160278,1305.123169 
	C1223.301147,1304.609619 1339.443848,1304.145264 1455.579346,1303.000854 
	C1497.706055,1302.585693 1539.820312,1300.447388 1581.926270,1298.746582 
	C1591.534912,1298.358398 1601.085693,1296.531616 1610.661987,1295.357788 
	C1615.038696,1294.821167 1617.464355,1292.387085 1618.106445,1287.981934 
	C1618.969971,1282.057739 1620.564575,1276.186768 1620.869751,1270.242920 
	C1622.996460,1228.831055 1625.480591,1187.423584 1626.657227,1145.980835 
	C1627.872314,1103.188477 1628.107544,1060.357910 1628.114380,1017.544128 
	C1628.127686,934.557007 1627.850708,851.568848 1627.373535,768.582947 
	C1626.950073,694.940796 1626.086304,621.301208 1625.428833,547.660400 
	C1625.101440,511.003174 1624.549927,474.345764 1624.546509,437.688385 
	C1624.541260,382.543488 1625.157837,327.398041 1625.034912,272.253876 
	C1624.985962,250.294006 1624.596436,228.255310 1622.670898,206.401489 
	C1620.730103,184.375259 1610.815552,174.927948 1588.890137,172.906189 
	C1574.176025,171.549377 1559.286011,171.845123 1544.474487,171.838303 
	C1406.816284,171.775009 1269.158203,171.806580 1130.500000,171.810715 
z"/>
<path fill="#EA1F27" opacity="1.000000" stroke="none" 
	d="
M934.175598,1521.241211 
	C956.606934,1470.468262 1015.749512,1468.144775 1046.811401,1489.368408 
	C1059.168335,1497.811646 1067.667725,1509.479004 1072.586914,1523.464722 
	C1080.429443,1545.762085 1080.170776,1568.335938 1072.395386,1590.557617 
	C1062.355591,1619.250732 1036.549438,1637.143066 1005.501709,1638.037109 
	C983.767273,1638.662842 964.252502,1633.353882 948.609436,1617.477539 
	C935.150757,1603.817871 928.985840,1586.808105 927.303528,1568.087280 
	C925.868835,1552.121826 927.794067,1536.511597 934.175598,1521.241211 
M1008.536560,1505.746704 
	C994.947388,1503.588135 983.957764,1507.966553 975.679260,1518.952271 
	C961.512268,1537.752197 960.768250,1574.848145 974.115234,1594.288696 
	C989.183228,1616.235962 1019.729858,1615.176147 1032.141235,1591.701172 
	C1043.682861,1569.871094 1043.496704,1547.196411 1033.040527,1524.922852 
	C1028.383057,1515.001465 1020.401794,1508.326416 1008.536560,1505.746704 
z"/>
<path fill="#EA1F27" opacity="1.000000" stroke="none" 
	d="
M209.043518,1579.849365 
	C204.867844,1557.375000 206.311539,1535.926636 216.923676,1515.798462 
	C228.430450,1493.973267 246.683426,1481.171997 271.110931,1477.872437 
	C294.758728,1474.678223 316.583527,1479.087524 334.649658,1495.851562 
	C345.452515,1505.875977 351.981659,1518.462280 355.332794,1532.729248 
	C359.981567,1552.520874 359.174164,1572.133789 352.128754,1591.189575 
	C341.593231,1619.684814 316.573822,1637.003662 285.827606,1638.021973 
	C263.917328,1638.747681 244.285309,1633.364380 228.478943,1617.377808 
	C218.236816,1607.018921 212.402451,1594.288696 209.043518,1579.849365 
M303.606415,1512.854614 
	C286.588623,1500.404053 267.125305,1503.194336 254.955017,1519.829224 
	C241.320847,1538.464966 241.097809,1576.020264 254.509598,1594.834473 
	C269.830261,1616.326538 299.417603,1614.635132 312.405212,1591.610474 
	C318.231079,1581.282349 320.276001,1570.057739 320.333923,1558.469360 
	C320.418579,1541.535278 317.164185,1525.626099 303.606415,1512.854614 
z"/>
<path fill="#EA1D26" opacity="1.000000" stroke="none" 
	d="
M54.562431,1567.999756 
	C54.562302,1538.197144 54.562302,1508.894409 54.562302,1479.289795 
	C66.387634,1479.289795 77.819992,1479.289795 89.825470,1479.289795 
	C89.825470,1499.323853 89.825470,1519.370972 89.825470,1539.715332 
	C109.321526,1539.715332 128.250153,1539.715332 147.771347,1539.715332 
	C147.771347,1519.731689 147.771347,1499.685547 147.771347,1479.302734 
	C159.756119,1479.302734 171.153458,1479.302734 182.874161,1479.302734 
	C182.874161,1531.451904 182.874161,1583.489014 182.874161,1635.792725 
	C171.322800,1635.792725 160.050354,1635.792725 148.165497,1635.792725 
	C148.165497,1614.378296 148.165497,1592.999268 148.165497,1571.313721 
	C128.635101,1571.313721 109.711235,1571.313721 90.191544,1571.313721 
	C90.191544,1592.592407 90.191544,1613.972534 90.191544,1635.685303 
	C78.180580,1635.685303 66.756821,1635.685303 54.562557,1635.685303 
	C54.562557,1613.336670 54.562557,1590.918335 54.562431,1567.999756 
z"/>
<path fill="#EA1E26" opacity="1.000000" stroke="none" 
	d="
M1517.979736,1563.000000 
	C1517.979736,1535.535645 1517.979736,1508.571289 1517.979736,1480.642822 
	C1529.598389,1479.767456 1540.960327,1478.534546 1552.350952,1478.145996 
	C1567.486816,1477.629761 1582.695312,1477.263672 1597.554077,1481.122437 
	C1613.607300,1485.291382 1625.805908,1493.989746 1629.713867,1511.012817 
	C1633.572632,1527.820312 1630.109497,1542.826416 1616.493042,1554.383545 
	C1612.858887,1557.468018 1608.531250,1559.735840 1604.204468,1562.587891 
	C1615.108276,1567.958862 1620.250610,1577.658447 1623.414917,1588.571533 
	C1627.946655,1604.200806 1632.111206,1619.936523 1636.539917,1636.016357 
	C1625.317871,1636.016357 1614.182861,1636.163452 1603.062134,1635.834351 
	C1601.635986,1635.792114 1599.517822,1633.505981 1599.019287,1631.864624 
	C1595.492920,1620.257446 1592.343018,1608.536621 1588.987793,1596.876587 
	C1588.024292,1593.528076 1586.984619,1590.173218 1585.623047,1586.973145 
	C1582.633179,1579.946655 1577.104980,1575.866577 1569.607788,1575.120239 
	C1564.345947,1574.596436 1558.989868,1575.019043 1553.089111,1575.019043 
	C1553.089111,1595.121582 1553.089111,1615.340088 1553.089111,1635.785400 
	C1541.246216,1635.785400 1529.986816,1635.785400 1517.979736,1635.785400 
	C1517.979736,1611.650146 1517.979736,1587.575073 1517.979736,1563.000000 
M1560.560547,1549.000977 
	C1567.911865,1548.018677 1575.553101,1547.973999 1582.540161,1545.813477 
	C1591.031250,1543.187744 1595.475708,1536.257812 1595.838623,1527.206055 
	C1596.188354,1518.477661 1592.925293,1511.366455 1584.852783,1507.572144 
	C1574.657593,1502.779907 1563.907837,1504.273438 1553.332886,1505.467407 
	C1553.332886,1520.285522 1553.332886,1534.499878 1553.332886,1549.000488 
	C1555.640625,1549.000488 1557.613281,1549.000488 1560.560547,1549.000977 
z"/>
<path fill="#EA1F27" opacity="1.000000" stroke="none" 
	d="
M1415.015869,1596.016968 
	C1410.528320,1596.016968 1406.537720,1596.016968 1402.092285,1596.016968 
	C1399.034546,1606.997559 1396.044922,1617.864990 1392.976562,1628.710205 
	C1390.447510,1637.648682 1391.981079,1635.895386 1383.547363,1635.994629 
	C1373.901855,1636.108154 1364.254028,1636.020874 1353.934814,1636.020874 
	C1356.453125,1627.619751 1358.788696,1619.712646 1361.193115,1611.826538 
	C1374.246094,1569.014648 1387.366333,1526.223145 1400.288330,1483.371826 
	C1401.364380,1479.803955 1402.964111,1478.844360 1406.510498,1478.895264 
	C1420.490112,1479.095459 1434.474487,1478.977417 1448.561157,1478.977417 
	C1464.769897,1531.382446 1480.873413,1583.446899 1497.126831,1635.996216 
	C1484.689453,1635.996216 1472.871948,1636.128418 1461.066528,1635.808350 
	C1459.769897,1635.773071 1457.910767,1633.342773 1457.386230,1631.683960 
	C1453.681763,1619.968506 1450.257812,1608.164307 1446.633667,1596.016968 
	C1436.129395,1596.016968 1425.821167,1596.016968 1415.015869,1596.016968 
M1411.239502,1569.511841 
	C1421.113159,1569.511841 1430.986816,1569.511841 1441.307251,1569.511841 
	C1435.309326,1548.073975 1429.574951,1527.577881 1423.552124,1506.051025 
	C1421.363525,1515.426514 1419.601562,1523.717285 1417.472656,1531.912720 
	C1414.590576,1543.007568 1411.383301,1554.017822 1408.427856,1565.094360 
	C1407.953979,1566.870239 1406.284912,1569.623169 1411.239502,1569.511841 
z"/>
<path fill="#EA1E27" opacity="1.000000" stroke="none" 
	d="
M1201.497314,1632.553467 
	C1200.549927,1634.014038 1199.613770,1635.885986 1198.668701,1635.890381 
	C1166.524902,1636.042236 1134.380005,1636.016602 1101.832031,1636.016602 
	C1101.832031,1583.684326 1101.832031,1531.652344 1101.832031,1479.296387 
	C1133.816162,1479.296387 1165.699829,1479.296387 1197.891968,1479.296387 
	C1197.891968,1488.789307 1197.891968,1498.169434 1197.891968,1508.155518 
	C1177.619873,1508.155518 1157.560059,1508.155518 1137.259521,1508.155518 
	C1137.259521,1519.333252 1137.259521,1529.906982 1137.259521,1540.938721 
	C1156.372314,1540.938721 1175.288208,1540.938721 1194.516113,1540.938721 
	C1194.516113,1550.621948 1194.516113,1559.850464 1194.516113,1569.631592 
	C1175.437622,1569.631592 1156.532471,1569.631592 1137.320557,1569.631592 
	C1137.320557,1582.231934 1137.320557,1594.282959 1137.320557,1606.791748 
	C1158.643921,1606.791748 1179.738525,1606.791748 1201.504517,1606.791748 
	C1201.504517,1615.519653 1201.504517,1623.806885 1201.497314,1632.553467 
z"/>
<path fill="#EA1D26" opacity="1.000000" stroke="none" 
	d="
M542.145386,1569.768311 
	C540.469116,1570.482422 538.251648,1571.181763 538.237427,1571.923218 
	C538.017639,1583.368774 538.084045,1594.819702 538.084045,1606.779297 
	C559.670227,1606.779297 580.760071,1606.779297 602.223633,1606.779297 
	C602.223633,1616.691772 602.223633,1626.089722 602.223633,1635.755127 
	C569.044739,1635.755127 536.110962,1635.755127 502.816528,1635.755127 
	C502.816528,1583.583496 502.816528,1531.516724 502.816528,1479.234131 
	C534.809570,1479.234131 566.723938,1479.234131 598.882141,1479.234131 
	C598.882141,1488.878296 598.882141,1498.269775 598.882141,1508.107666 
	C578.652588,1508.107666 558.730042,1508.107666 538.407654,1508.107666 
	C538.407654,1519.112061 538.407654,1529.680420 538.407654,1540.753662 
	C557.171204,1540.753662 576.082947,1540.753662 595.758972,1540.753662 
	C595.758972,1549.986450 595.883118,1558.746338 595.556885,1567.489380 
	C595.526062,1568.315430 592.672852,1569.690186 591.119568,1569.704956 
	C574.957336,1569.857910 558.792969,1569.784180 542.145386,1569.768311 
z"/>
<path fill="#EA1F27" opacity="1.000000" stroke="none" 
	d="
M1267.915039,1594.070312 
	C1282.371582,1608.827271 1300.130859,1609.966553 1318.721558,1607.502686 
	C1323.968994,1606.807251 1329.107666,1605.292969 1335.135254,1603.970093 
	C1336.762695,1612.589722 1338.478638,1621.309692 1339.934326,1630.072998 
	C1340.052979,1630.787354 1338.539551,1632.323486 1337.545288,1632.591919 
	C1305.875854,1641.142090 1274.827637,1642.121948 1246.536011,1622.371094 
	C1228.917114,1610.070923 1220.645020,1591.899292 1218.567261,1570.927124 
	C1216.035522,1545.372925 1220.783691,1521.716431 1238.972778,1502.333252 
	C1254.234497,1486.069580 1273.737427,1478.651001 1295.564697,1477.203613 
	C1311.260132,1476.162842 1326.822510,1477.291748 1342.258545,1483.760254 
	C1339.897827,1493.128174 1337.566772,1502.378906 1335.531738,1510.454956 
	C1324.156860,1509.119019 1313.373291,1506.739746 1302.603760,1506.802246 
	C1273.570190,1506.970337 1254.882324,1526.917114 1255.335693,1558.816040 
	C1255.519409,1571.743652 1258.541138,1583.912231 1267.915039,1594.070312 
z"/>
<path fill="#EB1F28" opacity="1.000000" stroke="none" 
	d="
M395.971039,1508.810669 
	C384.993530,1508.810669 374.513336,1508.810669 363.598083,1508.810669 
	C363.598083,1498.954956 363.598083,1489.394409 363.598083,1479.396484 
	C403.367188,1479.396484 443.227051,1479.396484 483.460785,1479.396484 
	C483.460785,1488.900391 483.460785,1498.473022 483.460785,1508.554077 
	C469.540680,1508.554077 455.625732,1508.554077 441.241882,1508.554077 
	C441.241882,1551.120850 441.241882,1593.189331 441.241882,1635.649414 
	C429.216888,1635.649414 417.658417,1635.649414 405.444641,1635.649414 
	C405.444641,1593.557495 405.444641,1551.504395 405.444641,1508.810669 
	C402.024902,1508.810669 399.246643,1508.810669 395.971039,1508.810669 
z"/>
<path fill="#E91E27" opacity="1.000000" stroke="none" 
	d="
M662.006042,1510.000000 
	C662.006042,1542.119263 662.006042,1573.738525 662.006042,1606.036621 
	C682.851807,1606.036621 703.374695,1606.036621 724.233459,1606.036621 
	C724.233459,1616.278442 724.233459,1625.844116 724.233459,1635.726807 
	C691.703003,1635.726807 659.334351,1635.726807 626.671265,1635.726807 
	C626.671265,1583.602051 626.671265,1531.715454 626.671265,1479.390869 
	C638.206787,1479.390869 649.744995,1479.390869 662.006042,1479.390869 
	C662.006042,1489.343262 662.006042,1499.421631 662.006042,1510.000000 
z"/>
<path fill="#EA1E26" opacity="1.000000" stroke="none" 
	d="
M1692.015503,1493.006836 
	C1692.015625,1530.795532 1692.015625,1568.085938 1692.015625,1606.191772 
	C1694.244507,1606.191772 1696.158813,1606.191284 1698.072998,1606.191772 
	C1715.229858,1606.196289 1732.388062,1606.310303 1749.542847,1606.122681 
	C1753.444702,1606.079956 1754.811157,1607.185425 1754.684814,1611.161133 
	C1754.427124,1619.274292 1754.607544,1627.401489 1754.607544,1635.771729 
	C1721.710938,1635.771729 1689.453369,1635.771729 1656.836426,1635.771729 
	C1656.836426,1583.627441 1656.836426,1531.583740 1656.836426,1479.258179 
	C1668.456787,1479.258179 1679.877930,1479.258179 1692.015381,1479.258179 
	C1692.015381,1483.669922 1692.015381,1488.089233 1692.015503,1493.006836 
z"/>
<path fill="#EA1E26" opacity="1.000000" stroke="none" 
	d="
M905.179688,1524.000000 
	C905.179688,1543.498535 905.561035,1562.508301 905.004639,1581.490479 
	C904.758789,1589.877686 903.449219,1598.448120 901.146851,1606.514282 
	C896.856628,1621.545410 886.584473,1631.243652 871.400391,1635.351929 
	C856.774902,1639.308960 842.099121,1638.830566 827.408691,1635.475464 
	C824.563538,1634.825562 823.576965,1633.601074 824.037781,1630.671875 
	C825.303894,1622.624146 826.354004,1614.542603 827.508911,1606.336914 
	C833.228943,1606.981934 838.753723,1607.960571 844.306824,1608.163696 
	C859.915955,1608.734741 867.051453,1602.627075 869.111206,1587.142822 
	C869.680298,1582.865479 869.933838,1578.516235 869.944397,1574.198975 
	C870.015625,1545.034790 869.982666,1515.870361 869.983276,1486.705933 
	C869.983337,1484.384155 869.983276,1482.062256 869.983276,1479.360229 
	C881.590332,1479.360229 892.989685,1479.360229 905.179688,1479.360229 
	C905.179688,1494.002441 905.179688,1508.751221 905.179688,1524.000000 
z"/>
<path fill="#FFFFFE" opacity="1.000000" stroke="none" 
	d="
M1131.000000,171.810669 
	C1269.158203,171.806580 1406.816284,171.775009 1544.474487,171.838303 
	C1559.286011,171.845123 1574.176025,171.549377 1588.890137,172.906189 
	C1610.815552,174.927948 1620.730103,184.375259 1622.670898,206.401489 
	C1624.596436,228.255310 1624.985962,250.294006 1625.034912,272.253876 
	C1625.157837,327.398041 1624.541260,382.543488 1624.546509,437.688385 
	C1624.549927,474.345764 1625.101440,511.003174 1625.428833,547.660400 
	C1626.086304,621.301208 1626.950073,694.940796 1627.373535,768.582947 
	C1627.850708,851.568848 1628.127686,934.557007 1628.114380,1017.544128 
	C1628.107544,1060.357910 1627.872314,1103.188477 1626.657227,1145.980835 
	C1625.480591,1187.423584 1622.996460,1228.831055 1620.869751,1270.242920 
	C1620.564575,1276.186768 1618.969971,1282.057739 1618.106445,1287.981934 
	C1617.464355,1292.387085 1615.038696,1294.821167 1610.661987,1295.357788 
	C1601.085693,1296.531616 1591.534912,1298.358398 1581.926270,1298.746582 
	C1539.820312,1300.447388 1497.706055,1302.585693 1455.579346,1303.000854 
	C1339.443848,1304.145264 1223.301147,1304.609619 1107.160278,1305.123169 
	C1061.833984,1305.323486 1016.504700,1305.010620 971.177429,1304.797852 
	C916.522766,1304.541382 861.868591,1304.162354 807.214478,1303.798828 
	C762.728027,1303.502808 718.242432,1303.075317 673.755676,1302.842163 
	C607.438660,1302.494507 541.119019,1301.838257 474.804321,1302.144409 
	C433.499695,1302.335083 392.206635,1304.499390 350.899658,1304.922485 
	C327.294861,1305.164185 303.648285,1304.121216 280.068970,1302.794922 
	C269.247681,1302.186401 258.819763,1298.770264 250.011230,1291.789062 
	C241.301590,1284.886108 236.756943,1275.459473 235.127411,1264.870239 
	C233.486450,1254.206787 232.139526,1243.365967 232.134506,1232.602295 
	C231.981033,902.955994 231.999344,573.309753 232.039337,243.663483 
	C232.041199,228.334671 232.596695,213.038528 236.999542,198.142548 
	C241.416473,183.198853 251.483826,174.738495 266.678955,173.143539 
	C278.404053,171.912811 290.267639,171.584106 302.070129,171.576767 
	C369.393066,171.534897 436.716156,171.784531 504.039185,171.796814 
	C712.859436,171.834900 921.679749,171.810730 1131.000000,171.810669 
M1362.890625,653.918274 
	C1362.890625,653.918274 1362.847900,653.790405 1362.332275,654.047668 
	C1362.006348,655.049622 1361.680420,656.051575 1361.397217,657.941589 
	C1367.077148,691.339844 1371.141479,724.850891 1368.000366,758.818665 
	C1366.145508,778.875977 1361.973633,798.255981 1350.741211,815.478027 
	C1334.014893,841.123474 1302.662964,846.679443 1278.022827,840.871155 
	C1279.935913,836.596802 1281.899048,832.421021 1283.689941,828.172729 
	C1291.091309,810.614990 1297.352051,792.769348 1297.250488,773.348694 
	C1297.123901,749.116028 1285.859009,732.385254 1263.147583,724.031921 
	C1241.573486,716.096985 1219.239746,714.640076 1196.765015,719.092041 
	C1177.061890,722.994995 1161.100098,733.167114 1151.385254,751.169373 
	C1136.486084,778.778381 1139.402710,806.929138 1150.155151,835.773376 
	C1164.153076,868.197510 1188.091675,887.936340 1223.333252,893.548584 
	C1243.237793,896.718384 1263.115723,896.070923 1283.023193,893.989136 
	C1316.447021,890.493774 1347.200684,879.883362 1374.188599,859.425903 
	C1381.980591,853.519531 1388.593628,846.444031 1392.496460,837.393005 
	C1396.960693,827.039795 1400.871216,816.447937 1405.214722,805.819092 
	C1405.214722,805.819092 1405.142212,805.592041 1405.728760,805.114929 
	C1407.537842,800.754944 1409.346924,796.394958 1411.064331,792.054077 
	C1411.064331,792.054077 1411.102905,792.139282 1411.668579,791.725464 
	C1412.535767,789.511047 1413.402954,787.296692 1414.797241,784.643677 
	C1416.883667,779.631042 1418.970093,774.618408 1421.641235,769.048035 
	C1423.440918,761.796570 1425.596313,754.612183 1426.978638,747.281921 
	C1432.864990,716.065247 1434.244141,684.442322 1434.148804,652.797607 
	C1433.973145,594.500610 1433.184692,536.205505 1432.679199,477.909393 
	C1432.600220,468.798676 1432.667969,459.686737 1432.667969,450.753052 
	C1422.928223,450.753052 1412.816895,450.710236 1402.706177,450.760803 
	C1367.887939,450.934967 1333.069946,451.303741 1298.251831,451.302643 
	C1223.940918,451.300262 1149.630127,451.045044 1075.319214,451.037170 
	C1048.993530,451.034363 1022.730896,452.107880 996.898987,457.956421 
	C966.951965,464.736664 941.741882,479.009674 923.404419,504.209900 
	C921.213135,507.221130 919.122253,510.305450 916.648804,513.835449 
	C916.316101,512.699890 916.091248,512.279114 916.082703,511.853912 
	C915.263916,471.416565 913.812012,430.978027 913.862488,390.541412 
	C913.903381,357.817566 918.968079,325.556488 927.612427,293.935059 
	C930.183960,284.528229 932.936890,275.170990 935.731079,265.354248 
	C856.975708,265.354248 778.671082,265.354248 699.966797,265.354248 
	C700.896790,266.753113 701.482300,267.741272 702.169861,268.652496 
	C727.748718,302.554688 738.430237,341.123199 737.951782,383.153351 
	C737.739563,401.801422 737.347351,420.447479 736.822388,439.275208 
	C736.702454,439.577179 736.753784,439.828308 736.795166,440.901154 
	C736.666260,446.263947 736.537415,451.626709 736.091309,457.881409 
	C736.023010,481.808502 735.889893,505.735687 735.914124,529.662720 
	C735.926086,541.441223 736.229126,553.219543 736.328796,565.932068 
	C736.574036,586.583801 736.962280,607.235046 737.035522,627.887390 
	C737.204529,675.525696 737.461975,723.166077 737.187195,770.802673 
	C737.067200,791.611084 735.328857,812.357178 729.120361,832.444397 
	C723.392456,850.976746 711.552734,863.242371 692.305847,867.223328 
	C683.216125,869.103394 673.901611,870.637634 664.653076,870.863953 
	C640.848633,871.446472 617.023560,871.354187 593.207886,871.256348 
	C575.531860,871.183777 557.974792,869.854858 540.806641,865.091248 
	C515.462280,858.058960 498.385559,842.449219 492.057587,816.709290 
	C488.977356,804.179993 487.119019,791.221741 486.099304,778.347473 
	C484.878662,762.936768 485.144958,747.408264 484.865021,731.149780 
	C482.899902,722.565430 480.976776,713.971008 478.919128,705.408875 
	C478.646820,704.275696 477.836914,702.542908 477.025513,702.386414 
	C471.752167,701.369202 473.644623,696.493164 472.306915,693.505249 
	C471.903687,692.604553 474.026184,689.910645 475.560394,688.911926 
	C485.947266,682.150940 497.531769,678.706787 509.779327,677.495056 
	C529.215759,675.572144 548.044556,678.063660 566.542480,685.435974 
	C557.838501,690.676819 554.827454,690.906616 545.765137,690.980042 
	C540.054138,691.026306 534.266357,692.576782 528.675110,694.062439 
	C518.329468,696.811279 508.102631,700.007690 497.129852,703.221741 
	C502.811981,711.287964 509.094269,716.642944 516.444885,720.610596 
	C536.148621,731.245972 556.474915,730.804871 576.672485,722.533813 
	C592.967041,715.860962 606.666443,705.540649 616.220459,690.335083 
	C616.220459,690.335083 616.176025,690.285706 616.776794,690.171631 
	C616.894592,689.790100 617.012390,689.408569 617.703247,688.647095 
	C622.164490,678.811279 626.625732,668.975464 631.629639,658.735901 
	C639.965515,647.527588 645.573914,635.195190 645.781372,621.039917 
	C646.093262,599.759949 635.772705,583.432861 620.331665,570.062439 
	C598.419067,551.088440 572.418152,541.483948 543.801636,539.397278 
	C508.407501,536.816467 478.210083,547.464600 455.542725,576.111877 
	C435.435913,601.522949 426.961670,631.380981 422.001190,662.584045 
	C417.251770,692.459595 416.725311,722.612305 416.778625,752.778503 
	C416.853363,795.092712 416.812592,837.408569 417.202118,879.720276 
	C417.430420,904.518494 417.448334,929.380310 419.278046,954.086365 
	C421.491882,983.979431 435.334503,999.090271 464.217041,1006.448669 
	C483.072174,1011.252380 502.394409,1012.512268 521.697937,1012.758057 
	C558.507263,1013.226929 595.326477,1013.119080 632.140564,1012.983276 
	C685.297546,1012.787170 738.469421,1012.996399 791.602112,1011.693604 
	C811.947144,1011.194763 832.202332,1007.013184 852.497314,1004.500427 
	C860.555298,1003.502869 868.609985,1002.479431 877.389893,1001.825623 
	C877.923340,1001.773193 878.456726,1001.720764 879.732727,1001.862793 
	C881.478821,1001.521667 883.224854,1001.180542 885.651489,1000.896545 
	C886.093933,1000.800598 886.536316,1000.704651 887.702454,1000.774292 
	C889.142578,1000.485840 890.582642,1000.197449 892.381104,1000.035095 
	C892.381104,1000.035095 892.753052,1000.111755 892.819885,1000.809753 
	C893.026917,1001.933838 893.233948,1003.057983 893.451050,1004.727478 
	C893.445557,1005.091125 893.440063,1005.454712 893.048157,1006.520386 
	C893.169128,1008.402405 893.290100,1010.284485 893.407349,1012.719604 
	C893.407532,1013.088379 893.407776,1013.457153 893.046509,1014.669067 
	C893.166931,1016.169067 893.287354,1017.669128 893.358765,1020.083191 
	C893.322876,1026.342529 893.287048,1032.601929 892.976562,1039.724121 
	C893.122009,1041.205811 893.267456,1042.687500 893.404968,1044.833496 
	C893.406982,1045.497803 893.409058,1046.162109 893.048889,1047.691406 
	C893.169983,1049.850098 893.291016,1052.008789 893.409058,1054.720093 
	C893.410645,1055.088501 893.412231,1055.456787 893.085693,1056.709351 
	C893.372314,1060.471802 893.658936,1064.234131 893.968933,1068.927246 
	C895.680359,1085.467285 896.533203,1102.153687 899.320557,1118.510376 
	C902.803162,1138.946777 911.211731,1157.258057 927.875793,1170.799316 
	C942.466248,1182.655518 959.659119,1188.710571 977.583313,1192.974365 
	C1010.127380,1200.715698 1043.366577,1203.289551 1076.622925,1204.533325 
	C1125.549438,1206.363037 1174.515259,1207.843384 1223.469971,1208.033936 
	C1279.598389,1208.252563 1335.732910,1206.878418 1391.865356,1206.246216 
	C1402.818481,1206.122925 1413.774170,1206.228516 1425.379761,1206.228516 
	C1426.669067,1135.512573 1427.938110,1065.905151 1429.230347,995.025513 
	C1426.569580,997.835571 1424.866943,999.587830 1423.214355,1001.386292 
	C1404.774048,1021.455017 1382.948853,1036.547485 1357.516479,1046.462646 
	C1326.041016,1058.733765 1293.077271,1063.282715 1259.685425,1063.500488 
	C1226.069946,1063.719849 1192.418945,1062.346436 1158.826782,1060.758179 
	C1140.372192,1059.885620 1122.178833,1056.375366 1104.654907,1050.000854 
	C1079.670532,1040.912598 1063.187866,1023.927368 1058.618530,997.559021 
	C1055.905762,981.904907 1054.895752,965.789795 1054.838867,949.875793 
	C1054.717651,915.913086 1056.002075,881.947754 1056.173462,847.980774 
	C1056.344116,814.164307 1055.616943,780.343567 1055.734131,746.526306 
	C1055.829468,719.019165 1057.490601,691.609436 1065.072144,664.934021 
	C1073.181274,636.401733 1089.049805,613.910461 1116.059326,600.286804 
	C1133.375488,591.552490 1151.981934,587.222839 1171.096680,585.104858 
	C1207.241333,581.099854 1243.256348,583.177490 1279.203125,587.922546 
	C1303.500244,591.129883 1323.910522,600.544006 1338.822876,621.108521 
	C1345.288086,630.023926 1354.007812,637.366516 1362.101807,645.001404 
	C1364.574219,647.333557 1365.528198,649.058289 1363.986328,651.985413 
	C1363.986328,651.985413 1363.965698,651.917114 1363.390747,652.177856 
	C1363.179199,652.761047 1362.967651,653.344238 1362.890625,653.918274 
z"/>
<path fill="#FEFCFB" opacity="1.000000" stroke="none" 
	d="
M1008.950500,1505.823730 
	C1020.401794,1508.326416 1028.383057,1515.001465 1033.040527,1524.922852 
	C1043.496704,1547.196411 1043.682861,1569.871094 1032.141235,1591.701172 
	C1019.729858,1615.176147 989.183228,1616.235962 974.115234,1594.288696 
	C960.768250,1574.848145 961.512268,1537.752197 975.679260,1518.952271 
	C983.957764,1507.966553 994.947388,1503.588135 1008.950500,1505.823730 
z"/>
<path fill="#FEFCFB" opacity="1.000000" stroke="none" 
	d="
M303.888489,1513.072876 
	C317.164185,1525.626099 320.418579,1541.535278 320.333923,1558.469360 
	C320.276001,1570.057739 318.231079,1581.282349 312.405212,1591.610474 
	C299.417603,1614.635132 269.830261,1616.326538 254.509598,1594.834473 
	C241.097809,1576.020264 241.320847,1538.464966 254.955017,1519.829224 
	C267.125305,1503.194336 286.588623,1500.404053 303.888489,1513.072876 
z"/>
<path fill="#FDFBFA" opacity="1.000000" stroke="none" 
	d="
M1560.073242,1549.000732 
	C1557.613281,1549.000488 1555.640625,1549.000488 1553.332886,1549.000488 
	C1553.332886,1534.499878 1553.332886,1520.285522 1553.332886,1505.467407 
	C1563.907837,1504.273438 1574.657593,1502.779907 1584.852783,1507.572144 
	C1592.925293,1511.366455 1596.188354,1518.477661 1595.838623,1527.206055 
	C1595.475708,1536.257812 1591.031250,1543.187744 1582.540161,1545.813477 
	C1575.553101,1547.973999 1567.911865,1548.018677 1560.073242,1549.000732 
z"/>
<path fill="#FDF7F5" opacity="1.000000" stroke="none" 
	d="
M1410.830078,1569.508789 
	C1406.284912,1569.623169 1407.953979,1566.870239 1408.427856,1565.094360 
	C1411.383301,1554.017822 1414.590576,1543.007568 1417.472656,1531.912720 
	C1419.601562,1523.717285 1421.363525,1515.426514 1423.552124,1506.051025 
	C1429.574951,1527.577881 1435.309326,1548.073975 1441.307251,1569.511841 
	C1430.986816,1569.511841 1421.113159,1569.511841 1410.830078,1569.508789 
z"/>
<path fill="#EC1C24" opacity="1.000000" stroke="none" 
	d="
M1421.056519,769.605713 
	C1418.970093,774.618408 1416.883667,779.631042 1414.230835,784.942261 
	C1410.908447,786.833984 1409.839111,789.053467 1411.102905,792.139282 
	C1411.102905,792.139282 1411.064331,792.054077 1410.812744,792.209534 
	C1407.218018,796.144348 1403.521606,799.779053 1405.142212,805.592041 
	C1405.142212,805.592041 1405.214722,805.819092 1404.847900,806.005493 
	C1403.367432,807.586487 1402.253662,808.981018 1400.961670,810.598694 
	C1399.880615,809.069641 1398.971558,807.783752 1397.563965,805.792847 
	C1397.331299,812.085815 1393.949585,811.466125 1390.082153,810.240967 
	C1388.214233,809.649231 1386.136475,809.107422 1384.241577,809.321472 
	C1377.107788,810.127075 1373.131348,807.472900 1373.021484,799.663330 
	C1373.067871,798.904358 1373.122559,798.472229 1373.509277,797.958740 
	C1377.239136,794.914246 1378.135742,791.243164 1376.940063,786.651123 
	C1377.022583,785.898254 1377.091431,785.470398 1377.532471,785.016968 
	C1378.908325,783.476685 1380.433838,782.084106 1380.822510,780.425232 
	C1382.247192,774.343872 1383.455322,768.198669 1384.398682,762.024597 
	C1384.746094,759.751587 1384.132202,757.331665 1383.975342,754.652527 
	C1384.075562,753.898560 1384.156982,753.470886 1384.595703,752.916077 
	C1385.966797,746.023376 1387.705444,739.273621 1387.853271,732.489075 
	C1388.230103,715.188416 1388.693115,697.872925 1382.452148,681.108521 
	C1380.840332,676.778320 1379.289307,673.008850 1375.537598,669.888794 
	C1371.193848,665.449707 1367.126709,661.194336 1363.050293,656.545532 
	C1362.976562,655.364929 1362.912231,654.577698 1362.847900,653.790405 
	C1362.847900,653.790405 1362.890625,653.918274 1363.132324,653.810608 
	C1363.571289,653.107666 1363.768555,652.512390 1363.965698,651.917114 
	C1363.965698,651.917114 1363.986328,651.985413 1364.321167,651.939941 
	C1365.324341,649.807251 1366.703125,647.656311 1366.522461,645.645447 
	C1366.055664,640.452515 1364.358521,635.346313 1364.120117,630.161011 
	C1363.373413,613.926453 1353.951782,602.982056 1342.352905,593.322815 
	C1335.390137,587.524414 1327.657715,582.549744 1321.272461,576.198242 
	C1317.820312,572.764343 1313.228394,568.261963 1315.270996,562.246277 
	C1317.480835,555.737976 1314.583984,552.031067 1309.634399,548.774658 
	C1306.787231,546.901550 1304.238892,544.559387 1301.335327,542.790588 
	C1297.367920,540.373596 1293.337891,537.933350 1289.049072,536.215942 
	C1286.362427,535.140137 1283.083496,535.659790 1280.186401,534.973389 
	C1262.088989,530.685425 1243.793579,527.320068 1225.200928,527.148438 
	C1209.285767,527.001526 1193.249878,527.383423 1177.461548,529.209778 
	C1157.610840,531.506165 1137.920898,535.307678 1118.237427,538.877686 
	C1110.116699,540.350586 1102.285034,543.457458 1094.154297,544.824219 
	C1085.777832,546.232117 1082.453613,549.270752 1081.961426,557.745300 
	C1081.645630,563.184753 1080.727173,568.586731 1080.195312,574.016907 
	C1079.807617,577.975403 1078.807617,582.132324 1079.640381,585.851440 
	C1080.111816,587.956604 1083.731812,589.356628 1086.520752,591.532349 
	C1083.579956,599.771973 1077.272705,607.289429 1070.804932,614.791199 
	C1062.710083,624.180420 1055.061890,633.883606 1052.592773,646.588867 
	C1051.425049,652.596985 1049.318726,658.439819 1048.385376,664.473145 
	C1045.401489,683.761719 1042.479492,703.069092 1040.111694,722.439941 
	C1038.795288,733.207642 1038.698608,744.120972 1037.918579,754.959045 
	C1037.407471,762.057800 1036.430664,769.127380 1036.060181,776.230835 
	C1035.238892,791.978882 1034.523926,807.735413 1034.035034,823.496826 
	C1033.524536,839.953796 1033.104736,856.419678 1033.042725,872.883179 
	C1032.898315,911.215698 1032.843018,949.549988 1033.081909,987.881592 
	C1033.153198,999.304565 1033.982300,1010.753174 1035.072266,1022.131775 
	C1036.406860,1036.064697 1040.677246,1049.226318 1047.870483,1061.266968 
	C1055.318481,1073.734131 1065.721680,1083.007812 1078.448486,1090.193481 
	C1089.848389,1096.629883 1101.848999,1101.480225 1114.492432,1103.646118 
	C1133.706421,1106.937622 1153.161255,1108.964966 1172.577759,1110.880127 
	C1185.605103,1112.165039 1198.743042,1112.881348 1211.831665,1112.883179 
	C1245.564331,1112.887695 1279.375610,1114.620239 1312.963379,1109.955322 
	C1330.596680,1107.506348 1348.066162,1104.395508 1364.467163,1096.809937 
	C1376.813721,1091.099487 1390.086914,1088.419556 1403.383789,1085.680664 
	C1409.363403,1084.449097 1409.375732,1088.179565 1410.895142,1091.264282 
	C1411.162231,1091.806641 1410.928223,1092.582153 1410.981323,1093.245483 
	C1411.681274,1101.994141 1412.138916,1110.771240 1413.148193,1119.484375 
	C1415.719849,1141.684326 1413.242310,1163.197754 1404.848877,1183.937256 
	C1401.828613,1191.400391 1397.487549,1192.090942 1390.759155,1187.671997 
	C1387.179932,1185.321289 1388.353516,1182.166992 1387.659668,1179.328735 
	C1385.981689,1172.464722 1384.162598,1165.597656 1383.132568,1158.623779 
	C1382.221191,1152.452148 1380.909790,1150.606323 1374.569580,1150.017578 
	C1360.231812,1148.686035 1345.916504,1146.992432 1331.551392,1146.102783 
	C1310.019043,1144.768921 1288.454346,1143.935547 1266.898071,1143.014893 
	C1255.777466,1142.539917 1244.646851,1142.252441 1233.517822,1142.026367 
	C1213.725586,1141.624390 1193.930908,1141.072876 1174.137329,1141.069214 
	C1154.009521,1141.065552 1133.875244,1141.431396 1113.755371,1142.026123 
	C1087.199951,1142.811279 1060.660278,1144.116577 1034.105469,1144.926147 
	C1018.363037,1145.406006 1003.451965,1149.978027 988.298462,1153.416260 
	C987.348938,1153.631714 986.332397,1154.009277 985.592957,1154.612915 
	C982.677856,1156.991943 980.006165,1159.691162 976.971436,1161.896606 
	C973.030212,1164.760986 968.771545,1166.348389 964.137146,1163.069946 
	C962.247131,1161.732910 960.368469,1160.292603 958.285522,1159.329956 
	C946.529846,1153.897461 936.033325,1146.677734 927.342896,1137.082153 
	C917.512451,1126.227783 914.473938,1112.974854 915.132812,1098.755737 
	C915.930786,1081.535034 917.807251,1064.324463 917.707703,1047.118042 
	C917.652771,1037.617310 917.719055,1027.511719 912.373169,1018.706238 
	C911.084961,1016.584290 909.692200,1014.306458 909.247559,1011.931763 
	C907.752319,1003.946899 902.918518,999.616150 895.182251,997.525757 
	C895.119568,984.157837 895.119568,971.252808 895.119568,958.005615 
	C877.634338,957.332825 861.206543,956.189819 844.777344,956.170593 
	C805.652954,956.124695 766.527466,956.551086 727.403442,956.901978 
	C702.438477,957.125916 677.474670,957.511169 652.511780,957.910706 
	C638.375610,958.136963 624.240540,958.476624 610.108032,958.874573 
	C586.841125,959.529785 563.576172,960.256409 540.311462,960.987793 
	C529.841492,961.316895 519.367310,961.599854 508.907776,962.146423 
	C500.454468,962.588074 491.995819,963.178711 483.588013,964.131165 
	C479.582886,964.584839 475.690460,966.033386 471.294983,967.000977 
	C464.012970,966.973145 457.182922,966.973816 450.352905,966.978516 
	C440.262543,966.985474 439.194092,965.806030 440.032593,955.575684 
	C440.059784,955.243958 440.069458,954.910522 440.105835,954.579895 
	C441.734283,939.784424 443.947235,925.024719 444.852509,910.185242 
	C446.075775,890.132812 446.468292,870.022583 446.863983,849.930176 
	C447.036987,841.144592 446.328308,832.342102 446.031982,823.546814 
	C445.690948,813.422729 445.034271,803.296204 445.093964,793.174194 
	C445.246948,767.222839 445.666687,741.272400 446.129822,715.324280 
	C446.192993,711.786865 447.113464,708.264709 447.645203,704.679993 
	C453.177856,704.677917 457.301086,706.718933 460.826416,710.281189 
	C467.137207,716.658020 470.994446,724.323792 472.987518,733.465576 
	C473.299683,742.239807 473.817413,750.543579 473.895081,758.851440 
	C474.041504,774.516113 473.919220,790.183167 473.936707,805.849243 
	C473.958099,824.985535 474.670013,844.044922 480.877930,862.418640 
	C484.717194,873.781738 490.604462,883.817993 499.982971,891.568604 
	C510.918610,900.606140 523.799683,905.851440 537.482727,907.831299 
	C557.488586,910.726196 577.687195,912.535461 597.864563,913.919861 
	C613.621948,915.000916 629.470581,914.891296 645.281128,915.021423 
	C664.138428,915.176697 682.742004,913.094543 700.917908,907.803650 
	C719.877869,902.284546 736.592285,893.487793 747.998169,876.535461 
	C758.178223,861.404968 760.862915,844.311035 760.775085,826.700928 
	C760.686401,808.917053 759.652771,791.138977 759.115967,773.355835 
	C758.388306,749.252075 757.717224,725.146484 757.065247,701.040466 
	C756.705383,687.733826 756.406799,674.425232 756.129089,661.116577 
	C755.702148,640.645325 755.290710,620.173706 754.928528,599.701233 
	C754.805298,592.734253 755.039978,585.757141 754.776001,578.797424 
	C754.354248,567.680481 753.417114,556.580444 753.121460,545.461975 
	C752.616882,526.491211 752.133606,507.510895 752.185974,488.536072 
	C752.322632,439.064240 752.674744,389.592499 753.155945,340.122772 
	C753.226685,332.848267 754.352844,325.571289 755.224304,318.323547 
	C755.576233,315.396393 755.725830,311.727142 757.510376,309.915344 
	C758.958435,308.445282 762.716492,309.285309 765.443909,309.034485 
	C775.665344,308.094543 785.872253,306.962067 796.107117,306.208618 
	C812.157532,305.026947 828.216309,303.887604 844.289917,303.110687 
	C862.720337,302.219818 881.172363,301.783752 899.611755,301.065399 
	C905.750916,300.826233 906.923462,301.529785 906.853516,307.951263 
	C906.717590,320.424469 906.559570,332.916321 905.763550,345.359100 
	C904.503235,365.059052 902.558350,384.714386 901.188477,404.408447 
	C899.955017,422.141449 898.992371,439.895813 898.154724,457.652283 
	C897.905457,462.936768 897.972290,468.339233 898.782166,473.549652 
	C900.611755,485.320282 902.854797,497.032898 905.186646,508.717773 
	C908.536804,525.505371 920.924377,535.412048 936.357666,533.838257 
	C948.300415,532.620361 959.044556,527.779175 969.448486,522.026123 
	C977.280823,517.695129 985.165833,513.430847 993.231201,509.561646 
	C997.368225,507.576996 1001.915710,505.369202 1006.338745,505.232178 
	C1038.605469,504.232483 1070.887573,503.735992 1103.164917,503.075256 
	C1118.138916,502.768738 1133.112671,502.453827 1148.086426,502.136414 
	C1164.722778,501.783813 1181.358887,501.419128 1197.995239,501.068939 
	C1213.469238,500.743164 1228.942749,500.391754 1244.417603,500.119537 
	C1265.888062,499.741791 1287.360107,499.458344 1308.830566,499.076508 
	C1326.473755,498.762756 1344.114258,498.197937 1361.758423,498.069214 
	C1371.568604,497.997620 1381.238770,496.580780 1391.206543,499.735382 
	C1405.229858,504.173523 1413.828857,512.959473 1416.785522,526.789124 
	C1419.027832,537.276428 1420.430054,548.090210 1420.761719,558.803528 
	C1421.219116,573.581238 1420.004883,588.401978 1420.053223,603.202515 
	C1420.216187,653.005737 1420.620728,702.808167 1420.934326,752.610901 
	C1420.969971,758.275818 1421.015503,763.940796 1421.056519,769.605713 
z"/>
<path fill="#B31F24" opacity="1.000000" stroke="none" 
	d="
M895.244934,997.988647 
	C902.918518,999.616150 907.752319,1003.946899 909.247559,1011.931763 
	C909.692200,1014.306458 911.084961,1016.584290 912.373169,1018.706238 
	C917.719055,1027.511719 917.652771,1037.617310 917.707703,1047.118042 
	C917.807251,1064.324463 915.930786,1081.535034 915.132812,1098.755737 
	C914.473938,1112.974854 917.512451,1126.227783 927.342896,1137.082153 
	C936.033325,1146.677734 946.529846,1153.897461 958.285522,1159.329956 
	C960.368469,1160.292603 962.247131,1161.732910 964.137146,1163.069946 
	C968.771545,1166.348389 973.030212,1164.760986 976.971436,1161.896606 
	C980.006165,1159.691162 982.677856,1156.991943 985.592957,1154.612915 
	C986.332397,1154.009277 987.348938,1153.631714 988.298462,1153.416260 
	C1003.451965,1149.978027 1018.363037,1145.406006 1034.105469,1144.926147 
	C1060.660278,1144.116577 1087.199951,1142.811279 1113.755371,1142.026123 
	C1133.875244,1141.431396 1154.009521,1141.065552 1174.137329,1141.069214 
	C1193.930908,1141.072876 1213.725586,1141.624390 1233.517822,1142.026367 
	C1244.646851,1142.252441 1255.777466,1142.539917 1266.898071,1143.014893 
	C1288.454346,1143.935547 1310.019043,1144.768921 1331.551392,1146.102783 
	C1345.916504,1146.992432 1360.231812,1148.686035 1374.569580,1150.017578 
	C1380.909790,1150.606323 1382.221191,1152.452148 1383.132568,1158.623779 
	C1384.162598,1165.597656 1385.981689,1172.464722 1387.659668,1179.328735 
	C1388.353516,1182.166992 1387.179932,1185.321289 1390.759155,1187.671997 
	C1397.487549,1192.090942 1401.828613,1191.400391 1404.848877,1183.937256 
	C1413.242310,1163.197754 1415.719849,1141.684326 1413.148193,1119.484375 
	C1412.138916,1110.771240 1411.681274,1101.994141 1410.981323,1093.245483 
	C1410.928223,1092.582153 1411.162231,1091.806641 1410.895142,1091.264282 
	C1409.375732,1088.179565 1409.363403,1084.449097 1403.383789,1085.680664 
	C1390.086914,1088.419556 1376.813721,1091.099487 1364.467163,1096.809937 
	C1348.066162,1104.395508 1330.596680,1107.506348 1312.963379,1109.955322 
	C1279.375610,1114.620239 1245.564331,1112.887695 1211.831665,1112.883179 
	C1198.743042,1112.881348 1185.605103,1112.165039 1172.577759,1110.880127 
	C1153.161255,1108.964966 1133.706421,1106.937622 1114.492432,1103.646118 
	C1101.848999,1101.480225 1089.848389,1096.629883 1078.448486,1090.193481 
	C1065.721680,1083.007812 1055.318481,1073.734131 1047.870483,1061.266968 
	C1040.677246,1049.226318 1036.406860,1036.064697 1035.072266,1022.131775 
	C1033.982300,1010.753174 1033.153198,999.304565 1033.081909,987.881592 
	C1032.843018,949.549988 1032.898315,911.215698 1033.042725,872.883179 
	C1033.104736,856.419678 1033.524536,839.953796 1034.035034,823.496826 
	C1034.523926,807.735413 1035.238892,791.978882 1036.060181,776.230835 
	C1036.430664,769.127380 1037.407471,762.057800 1037.918579,754.959045 
	C1038.698608,744.120972 1038.795288,733.207642 1040.111694,722.439941 
	C1042.479492,703.069092 1045.401489,683.761719 1048.385376,664.473145 
	C1049.318726,658.439819 1051.425049,652.596985 1052.592773,646.588867 
	C1055.061890,633.883606 1062.710083,624.180420 1070.804932,614.791199 
	C1077.272705,607.289429 1083.579956,599.771973 1086.520752,591.532349 
	C1083.731812,589.356628 1080.111816,587.956604 1079.640381,585.851440 
	C1078.807617,582.132324 1079.807617,577.975403 1080.195312,574.016907 
	C1080.727173,568.586731 1081.645630,563.184753 1081.961426,557.745300 
	C1082.453613,549.270752 1085.777832,546.232117 1094.154297,544.824219 
	C1102.285034,543.457458 1110.116699,540.350586 1118.237427,538.877686 
	C1137.920898,535.307678 1157.610840,531.506165 1177.461548,529.209778 
	C1193.249878,527.383423 1209.285767,527.001526 1225.200928,527.148438 
	C1243.793579,527.320068 1262.088989,530.685425 1280.186401,534.973389 
	C1283.083496,535.659790 1286.362427,535.140137 1289.049072,536.215942 
	C1293.337891,537.933350 1297.367920,540.373596 1301.335327,542.790588 
	C1304.238892,544.559387 1306.787231,546.901550 1309.634399,548.774658 
	C1314.583984,552.031067 1317.480835,555.737976 1315.270996,562.246277 
	C1313.228394,568.261963 1317.820312,572.764343 1321.272461,576.198242 
	C1327.657715,582.549744 1335.390137,587.524414 1342.352905,593.322815 
	C1353.951782,602.982056 1363.373413,613.926453 1364.120117,630.161011 
	C1364.358521,635.346313 1366.055664,640.452515 1366.522461,645.645447 
	C1366.703125,647.656311 1365.324341,649.807251 1364.285767,651.935730 
	C1365.528198,649.058289 1364.574219,647.333557 1362.101807,645.001404 
	C1354.007812,637.366516 1345.288086,630.023926 1338.822876,621.108521 
	C1323.910522,600.544006 1303.500244,591.129883 1279.203125,587.922546 
	C1243.256348,583.177490 1207.241333,581.099854 1171.096680,585.104858 
	C1151.981934,587.222839 1133.375488,591.552490 1116.059326,600.286804 
	C1089.049805,613.910461 1073.181274,636.401733 1065.072144,664.934021 
	C1057.490601,691.609436 1055.829468,719.019165 1055.734131,746.526306 
	C1055.616943,780.343567 1056.344116,814.164307 1056.173462,847.980774 
	C1056.002075,881.947754 1054.717651,915.913086 1054.838867,949.875793 
	C1054.895752,965.789795 1055.905762,981.904907 1058.618530,997.559021 
	C1063.187866,1023.927368 1079.670532,1040.912598 1104.654907,1050.000854 
	C1122.178833,1056.375366 1140.372192,1059.885620 1158.826782,1060.758179 
	C1192.418945,1062.346436 1226.069946,1063.719849 1259.685425,1063.500488 
	C1293.077271,1063.282715 1326.041016,1058.733765 1357.516479,1046.462646 
	C1382.948853,1036.547485 1404.774048,1021.455017 1423.214355,1001.386292 
	C1424.866943,999.587830 1426.569580,997.835571 1429.230347,995.025513 
	C1427.938110,1065.905151 1426.669067,1135.512573 1425.379761,1206.228516 
	C1413.774170,1206.228516 1402.818481,1206.122925 1391.865356,1206.246216 
	C1335.732910,1206.878418 1279.598389,1208.252563 1223.469971,1208.033936 
	C1174.515259,1207.843384 1125.549438,1206.363037 1076.622925,1204.533325 
	C1043.366577,1203.289551 1010.127380,1200.715698 977.583313,1192.974365 
	C959.659119,1188.710571 942.466248,1182.655518 927.875793,1170.799316 
	C911.211731,1157.258057 902.803162,1138.946777 899.320557,1118.510376 
	C896.533203,1102.153687 895.680359,1085.467285 894.053223,1068.016357 
	C893.896301,1063.345337 893.655090,1059.585205 893.413818,1055.825195 
	C893.412231,1055.456787 893.410645,1055.088501 893.608398,1054.121948 
	C893.675537,1051.291382 893.543335,1049.058838 893.411133,1046.826416 
	C893.409058,1046.162109 893.406982,1045.497803 893.602173,1044.209351 
	C893.616699,1042.010620 893.433960,1040.435913 893.251221,1038.861328 
	C893.287048,1032.601929 893.322876,1026.342529 893.586121,1019.340698 
	C893.678284,1017.007385 893.543152,1015.416687 893.407959,1013.825928 
	C893.407776,1013.457153 893.407532,1013.088379 893.609497,1012.095703 
	C893.685974,1009.587341 893.560242,1007.702881 893.434570,1005.818359 
	C893.440063,1005.454712 893.445557,1005.091125 893.639404,1004.068970 
	C893.847778,1002.263184 893.867798,1001.115906 894.159729,999.816711 
	C894.702698,999.106018 894.973816,998.547363 895.244934,997.988647 
z"/>
<path fill="#7B1314" opacity="1.000000" stroke="none" 
	d="
M1421.348877,769.326904 
	C1421.015503,763.940796 1420.969971,758.275818 1420.934326,752.610901 
	C1420.620728,702.808167 1420.216187,653.005737 1420.053223,603.202515 
	C1420.004883,588.401978 1421.219116,573.581238 1420.761719,558.803528 
	C1420.430054,548.090210 1419.027832,537.276428 1416.785522,526.789124 
	C1413.828857,512.959473 1405.229858,504.173523 1391.206543,499.735382 
	C1381.238770,496.580780 1371.568604,497.997620 1361.758423,498.069214 
	C1344.114258,498.197937 1326.473755,498.762756 1308.830566,499.076508 
	C1287.360107,499.458344 1265.888062,499.741791 1244.417603,500.119537 
	C1228.942749,500.391754 1213.469238,500.743164 1197.995239,501.068939 
	C1181.358887,501.419128 1164.722778,501.783813 1148.086426,502.136414 
	C1133.112671,502.453827 1118.138916,502.768738 1103.164917,503.075256 
	C1070.887573,503.735992 1038.605469,504.232483 1006.338745,505.232178 
	C1001.915710,505.369202 997.368225,507.576996 993.231201,509.561646 
	C985.165833,513.430847 977.280823,517.695129 969.448486,522.026123 
	C959.044556,527.779175 948.300415,532.620361 936.357666,533.838257 
	C920.924377,535.412048 908.536804,525.505371 905.186646,508.717773 
	C902.854797,497.032898 900.611755,485.320282 898.782166,473.549652 
	C897.972290,468.339233 897.905457,462.936768 898.154724,457.652283 
	C898.992371,439.895813 899.955017,422.141449 901.188477,404.408447 
	C902.558350,384.714386 904.503235,365.059052 905.763550,345.359100 
	C906.559570,332.916321 906.717590,320.424469 906.853516,307.951263 
	C906.923462,301.529785 905.750916,300.826233 899.611755,301.065399 
	C881.172363,301.783752 862.720337,302.219818 844.289917,303.110687 
	C828.216309,303.887604 812.157532,305.026947 796.107117,306.208618 
	C785.872253,306.962067 775.665344,308.094543 765.443909,309.034485 
	C762.716492,309.285309 758.958435,308.445282 757.510376,309.915344 
	C755.725830,311.727142 755.576233,315.396393 755.224304,318.323547 
	C754.352844,325.571289 753.226685,332.848267 753.155945,340.122772 
	C752.674744,389.592499 752.322632,439.064240 752.185974,488.536072 
	C752.133606,507.510895 752.616882,526.491211 753.121460,545.461975 
	C753.417114,556.580444 754.354248,567.680481 754.776001,578.797424 
	C755.039978,585.757141 754.805298,592.734253 754.928528,599.701233 
	C755.290710,620.173706 755.702148,640.645325 756.129089,661.116577 
	C756.406799,674.425232 756.705383,687.733826 757.065247,701.040466 
	C757.717224,725.146484 758.388306,749.252075 759.115967,773.355835 
	C759.652771,791.138977 760.686401,808.917053 760.775085,826.700928 
	C760.862915,844.311035 758.178223,861.404968 747.998169,876.535461 
	C736.592285,893.487793 719.877869,902.284546 700.917908,907.803650 
	C682.742004,913.094543 664.138428,915.176697 645.281128,915.021423 
	C629.470581,914.891296 613.621948,915.000916 597.864563,913.919861 
	C577.687195,912.535461 557.488586,910.726196 537.482727,907.831299 
	C523.799683,905.851440 510.918610,900.606140 499.982971,891.568604 
	C490.604462,883.817993 484.717194,873.781738 480.877930,862.418640 
	C474.670013,844.044922 473.958099,824.985535 473.936707,805.849243 
	C473.919220,790.183167 474.041504,774.516113 473.895081,758.851440 
	C473.817413,750.543579 473.299683,742.239807 473.243286,733.231201 
	C473.873047,731.472473 474.240051,730.416870 474.572784,729.459900 
	C478.146271,730.326050 481.456757,731.128418 484.767242,731.930786 
	C485.144958,747.408264 484.878662,762.936768 486.099304,778.347473 
	C487.119019,791.221741 488.977356,804.179993 492.057587,816.709290 
	C498.385559,842.449219 515.462280,858.058960 540.806641,865.091248 
	C557.974792,869.854858 575.531860,871.183777 593.207886,871.256348 
	C617.023560,871.354187 640.848633,871.446472 664.653076,870.863953 
	C673.901611,870.637634 683.216125,869.103394 692.305847,867.223328 
	C711.552734,863.242371 723.392456,850.976746 729.120361,832.444397 
	C735.328857,812.357178 737.067200,791.611084 737.187195,770.802673 
	C737.461975,723.166077 737.204529,675.525696 737.035522,627.887390 
	C736.962280,607.235046 736.574036,586.583801 736.583923,565.116577 
	C736.905884,563.640625 737.031067,562.980164 737.031250,562.319702 
	C737.041504,528.497192 737.047974,494.674713 737.015076,460.852234 
	C737.013855,459.564453 736.619629,458.277069 736.408569,456.989502 
	C736.537415,451.626709 736.666260,446.263947 736.960999,440.235321 
	C737.126831,439.569489 737.036804,439.094452 737.036804,439.094452 
	C737.347351,420.447479 737.739563,401.801422 737.951782,383.153351 
	C738.430237,341.123199 727.748718,302.554688 702.169861,268.652496 
	C701.482300,267.741272 700.896790,266.753113 699.966797,265.354248 
	C778.671082,265.354248 856.975708,265.354248 935.731079,265.354248 
	C932.936890,275.170990 930.183960,284.528229 927.612427,293.935059 
	C918.968079,325.556488 913.903381,357.817566 913.862488,390.541412 
	C913.812012,430.978027 915.263916,471.416565 916.082703,511.853912 
	C916.091248,512.279114 916.316101,512.699890 916.648804,513.835449 
	C919.122253,510.305450 921.213135,507.221130 923.404419,504.209900 
	C941.741882,479.009674 966.951965,464.736664 996.898987,457.956421 
	C1022.730896,452.107880 1048.993530,451.034363 1075.319214,451.037170 
	C1149.630127,451.045044 1223.940918,451.300262 1298.251831,451.302643 
	C1333.069946,451.303741 1367.887939,450.934967 1402.706177,450.760803 
	C1412.816895,450.710236 1422.928223,450.753052 1432.667969,450.753052 
	C1432.667969,459.686737 1432.600220,468.798676 1432.679199,477.909393 
	C1433.184692,536.205505 1433.973145,594.500610 1434.148804,652.797607 
	C1434.244141,684.442322 1432.864990,716.065247 1426.978638,747.281921 
	C1425.596313,754.612183 1423.440918,761.796570 1421.348877,769.326904 
z"/>
<path fill="#A31D20" opacity="1.000000" stroke="none" 
	d="
M484.816132,731.540283 
	C481.456757,731.128418 478.146271,730.326050 474.572784,729.459900 
	C474.240051,730.416870 473.873047,731.472473 473.250244,732.762573 
	C470.994446,724.323792 467.137207,716.658020 460.826416,710.281189 
	C457.301086,706.718933 453.177856,704.677917 447.645203,704.679993 
	C447.113464,708.264709 446.192993,711.786865 446.129822,715.324280 
	C445.666687,741.272400 445.246948,767.222839 445.093964,793.174194 
	C445.034271,803.296204 445.690948,813.422729 446.031982,823.546814 
	C446.328308,832.342102 447.036987,841.144592 446.863983,849.930176 
	C446.468292,870.022583 446.075775,890.132812 444.852509,910.185242 
	C443.947235,925.024719 441.734283,939.784424 440.105835,954.579895 
	C440.069458,954.910522 440.059784,955.243958 440.032593,955.575684 
	C439.194092,965.806030 440.262543,966.985474 450.352905,966.978516 
	C457.182922,966.973816 464.012970,966.973145 471.481171,967.293945 
	C474.944794,971.109680 477.952332,974.473511 480.540649,978.133728 
	C482.799988,981.328674 485.564056,982.261963 489.387329,982.197632 
	C517.690979,981.720825 545.997742,981.424805 574.303833,981.095581 
	C603.611328,980.754761 632.919128,980.432617 662.226868,980.116943 
	C694.527771,979.769104 726.828369,979.378418 759.130005,979.121521 
	C779.459412,978.959778 799.791016,979.076721 820.120605,978.933289 
	C829.268311,978.868774 838.412415,978.349976 847.560364,978.258789 
	C859.834045,978.136353 872.109863,978.228394 884.662415,978.228394 
	C881.920044,986.198547 879.293091,993.833130 876.666138,1001.467773 
	C868.609985,1002.479431 860.555298,1003.502869 852.497314,1004.500427 
	C832.202332,1007.013184 811.947144,1011.194763 791.602112,1011.693604 
	C738.469421,1012.996399 685.297546,1012.787170 632.140564,1012.983276 
	C595.326477,1013.119080 558.507263,1013.226929 521.697937,1012.758057 
	C502.394409,1012.512268 483.072174,1011.252380 464.217041,1006.448669 
	C435.334503,999.090271 421.491882,983.979431 419.278046,954.086365 
	C417.448334,929.380310 417.430420,904.518494 417.202118,879.720276 
	C416.812592,837.408569 416.853363,795.092712 416.778625,752.778503 
	C416.725311,722.612305 417.251770,692.459595 422.001190,662.584045 
	C426.961670,631.380981 435.435913,601.522949 455.542725,576.111877 
	C478.210083,547.464600 508.407501,536.816467 543.801636,539.397278 
	C572.418152,541.483948 598.419067,551.088440 620.331665,570.062439 
	C635.772705,583.432861 646.093262,599.759949 645.781372,621.039917 
	C645.573914,635.195190 639.965515,647.527588 631.339050,658.504517 
	C630.912537,656.622131 631.089722,654.869141 630.591003,653.336121 
	C626.656006,641.239746 622.555969,629.235046 614.930725,618.767395 
	C606.075928,606.611877 594.037354,599.699036 579.518738,597.007202 
	C566.197388,594.537292 552.794495,592.503967 539.420227,590.322998 
	C532.658386,589.220337 527.196045,590.116455 522.415161,596.426758 
	C517.195923,603.315491 510.090698,608.751404 504.021423,615.027466 
	C499.132080,620.083374 493.799194,624.965027 490.089233,630.826660 
	C487.100037,635.549622 485.791290,641.521667 484.551270,647.119995 
	C482.931213,654.433594 482.113983,661.925110 480.918976,669.546753 
	C487.348511,670.072510 492.932831,670.841187 498.527313,670.924133 
	C511.685455,671.119141 524.871582,670.514709 538.000916,671.159607 
	C546.180603,671.561462 554.396851,673.163879 562.377808,675.120361 
	C570.358582,677.076660 572.034607,679.742493 571.938904,687.795593 
	C571.892822,691.668701 573.177612,693.329163 577.135986,693.042175 
	C590.172180,692.096741 603.216675,691.265198 616.257935,690.389893 
	C606.666443,705.540649 592.967041,715.860962 576.672485,722.533813 
	C556.474915,730.804871 536.148621,731.245972 516.444885,720.610596 
	C509.094269,716.642944 502.811981,711.287964 497.129852,703.221741 
	C508.102631,700.007690 518.329468,696.811279 528.675110,694.062439 
	C534.266357,692.576782 540.054138,691.026306 545.765137,690.980042 
	C554.827454,690.906616 557.838501,690.676819 566.542480,685.435974 
	C548.044556,678.063660 529.215759,675.572144 509.779327,677.495056 
	C497.531769,678.706787 485.947266,682.150940 475.560394,688.911926 
	C474.026184,689.910645 471.903687,692.604553 472.306915,693.505249 
	C473.644623,696.493164 471.752167,701.369202 477.025513,702.386414 
	C477.836914,702.542908 478.646820,704.275696 478.919128,705.408875 
	C480.976776,713.971008 482.899902,722.565430 484.816132,731.540283 
z"/>
<path fill="#D42027" opacity="1.000000" stroke="none" 
	d="
M1373.029541,799.990173 
	C1373.131348,807.472900 1377.107788,810.127075 1384.241577,809.321472 
	C1386.136475,809.107422 1388.214233,809.649231 1390.082153,810.240967 
	C1393.949585,811.466125 1397.331299,812.085815 1397.563965,805.792847 
	C1398.971558,807.783752 1399.880615,809.069641 1400.961670,810.598694 
	C1402.253662,808.981018 1403.367432,807.586487 1404.751709,806.075806 
	C1400.871216,816.447937 1396.960693,827.039795 1392.496460,837.393005 
	C1388.593628,846.444031 1381.980591,853.519531 1374.188599,859.425903 
	C1347.200684,879.883362 1316.447021,890.493774 1283.023193,893.989136 
	C1263.115723,896.070923 1243.237793,896.718384 1223.333252,893.548584 
	C1188.091675,887.936340 1164.153076,868.197510 1150.424805,835.235962 
	C1153.136108,830.962524 1156.343140,827.508789 1157.848022,823.427490 
	C1160.403809,816.496338 1161.458740,809.019165 1163.912842,802.041748 
	C1168.554932,788.843567 1177.129028,779.025330 1189.914307,772.746033 
	C1201.259888,767.173767 1212.475830,761.360291 1225.120483,759.432739 
	C1232.439819,758.316895 1240.027832,756.553223 1247.179810,757.489319 
	C1253.216309,758.279419 1260.039062,761.282104 1264.334229,765.516418 
	C1274.561401,775.598633 1276.436768,789.204773 1275.770020,802.962830 
	C1275.362305,811.378113 1274.280029,819.808838 1272.803955,828.108765 
	C1271.652466,834.583496 1271.259521,842.124817 1262.316895,843.570923 
	C1262.130493,843.601013 1262.019775,844.098145 1261.861572,844.400452 
	C1264.896851,845.578003 1267.848755,847.068359 1270.977051,847.869141 
	C1278.837646,849.881104 1286.857544,851.296082 1294.666260,853.478027 
	C1304.734863,856.291382 1314.246338,855.203003 1323.764038,851.190613 
	C1334.685425,846.586365 1342.451416,838.127808 1350.407227,829.950256 
	C1359.179199,820.934143 1367.671509,811.622437 1373.029541,799.990173 
z"/>
<path fill="#7B1415" opacity="1.000000" stroke="none" 
	d="
M1373.021484,799.663330 
	C1367.671509,811.622437 1359.179199,820.934143 1350.407227,829.950256 
	C1342.451416,838.127808 1334.685425,846.586365 1323.764038,851.190613 
	C1314.246338,855.203003 1304.734863,856.291382 1294.666260,853.478027 
	C1286.857544,851.296082 1278.837646,849.881104 1270.977051,847.869141 
	C1267.848755,847.068359 1264.896851,845.578003 1261.861572,844.400452 
	C1262.019775,844.098145 1262.130493,843.601013 1262.316895,843.570923 
	C1271.259521,842.124817 1271.652466,834.583496 1272.803955,828.108765 
	C1274.280029,819.808838 1275.362305,811.378113 1275.770020,802.962830 
	C1276.436768,789.204773 1274.561401,775.598633 1264.334229,765.516418 
	C1260.039062,761.282104 1253.216309,758.279419 1247.179810,757.489319 
	C1240.027832,756.553223 1232.439819,758.316895 1225.120483,759.432739 
	C1212.475830,761.360291 1201.259888,767.173767 1189.914307,772.746033 
	C1177.129028,779.025330 1168.554932,788.843567 1163.912842,802.041748 
	C1161.458740,809.019165 1160.403809,816.496338 1157.848022,823.427490 
	C1156.343140,827.508789 1153.136108,830.962524 1150.414429,834.881104 
	C1139.402710,806.929138 1136.486084,778.778381 1151.385254,751.169373 
	C1161.100098,733.167114 1177.061890,722.994995 1196.765015,719.092041 
	C1219.239746,714.640076 1241.573486,716.096985 1263.147583,724.031921 
	C1285.859009,732.385254 1297.123901,749.116028 1297.250488,773.348694 
	C1297.352051,792.769348 1291.091309,810.614990 1283.689941,828.172729 
	C1281.899048,832.421021 1279.935913,836.596802 1278.022827,840.871155 
	C1302.662964,846.679443 1334.014893,841.123474 1350.741211,815.478027 
	C1361.973633,798.255981 1366.145508,778.875977 1368.000366,758.818665 
	C1371.141479,724.850891 1367.077148,691.339844 1361.803467,657.487732 
	C1362.493164,657.002197 1362.776367,656.970581 1363.059692,656.938904 
	C1367.126709,661.194336 1371.193848,665.449707 1375.586426,670.258911 
	C1376.292603,671.904175 1376.563843,673.049561 1377.070679,674.079041 
	C1383.487061,687.115906 1386.162354,701.019897 1385.940186,715.407104 
	C1385.746216,727.958191 1384.833618,740.498230 1384.238525,753.043152 
	C1384.156982,753.470886 1384.075562,753.898560 1383.713379,754.940063 
	C1381.341919,765.383423 1379.251221,775.212952 1377.160400,785.042480 
	C1377.091431,785.470398 1377.022583,785.898254 1376.690430,786.902344 
	C1375.343994,790.999023 1374.260620,794.519531 1373.177246,798.040039 
	C1373.122559,798.472229 1373.067871,798.904358 1373.021484,799.663330 
z"/>
<path fill="#EB1C25" opacity="1.000000" stroke="none" 
	d="
M616.239197,690.362488 
	C603.216675,691.265198 590.172180,692.096741 577.135986,693.042175 
	C573.177612,693.329163 571.892822,691.668701 571.938904,687.795593 
	C572.034607,679.742493 570.358582,677.076660 562.377808,675.120361 
	C554.396851,673.163879 546.180603,671.561462 538.000916,671.159607 
	C524.871582,670.514709 511.685455,671.119141 498.527313,670.924133 
	C492.932831,670.841187 487.348511,670.072510 480.918976,669.546753 
	C482.113983,661.925110 482.931213,654.433594 484.551270,647.119995 
	C485.791290,641.521667 487.100037,635.549622 490.089233,630.826660 
	C493.799194,624.965027 499.132080,620.083374 504.021423,615.027466 
	C510.090698,608.751404 517.195923,603.315491 522.415161,596.426758 
	C527.196045,590.116455 532.658386,589.220337 539.420227,590.322998 
	C552.794495,592.503967 566.197388,594.537292 579.518738,597.007202 
	C594.037354,599.699036 606.075928,606.611877 614.930725,618.767395 
	C622.555969,629.235046 626.656006,641.239746 630.591003,653.336121 
	C631.089722,654.869141 630.912537,656.622131 631.067688,658.706421 
	C626.625732,668.975464 622.164490,678.811279 617.155762,688.955261 
	C616.464233,689.604187 616.320129,689.944946 616.176025,690.285706 
	C616.176025,690.285706 616.220459,690.335083 616.239197,690.362488 
z"/>
<path fill="#F38385" opacity="1.000000" stroke="none" 
	d="
M877.028015,1001.646729 
	C879.293091,993.833130 881.920044,986.198547 884.662415,978.228394 
	C872.109863,978.228394 859.834045,978.136353 847.560364,978.258789 
	C838.412415,978.349976 829.268311,978.868774 820.120605,978.933289 
	C799.791016,979.076721 779.459412,978.959778 759.130005,979.121521 
	C726.828369,979.378418 694.527771,979.769104 662.226868,980.116943 
	C632.919128,980.432617 603.611328,980.754761 574.303833,981.095581 
	C545.997742,981.424805 517.690979,981.720825 489.387329,982.197632 
	C485.564056,982.261963 482.799988,981.328674 480.540649,978.133728 
	C477.952332,974.473511 474.944794,971.109680 471.933167,967.324219 
	C475.690460,966.033386 479.582886,964.584839 483.588013,964.131165 
	C491.995819,963.178711 500.454468,962.588074 508.907776,962.146423 
	C519.367310,961.599854 529.841492,961.316895 540.311462,960.987793 
	C563.576172,960.256409 586.841125,959.529785 610.108032,958.874573 
	C624.240540,958.476624 638.375610,958.136963 652.511780,957.910706 
	C677.474670,957.511169 702.438477,957.125916 727.403442,956.901978 
	C766.527466,956.551086 805.652954,956.124695 844.777344,956.170593 
	C861.206543,956.189819 877.634338,957.332825 895.119568,958.005615 
	C895.119568,971.252808 895.119568,984.157837 895.182251,997.525757 
	C894.973816,998.547363 894.702698,999.106018 893.875977,999.850098 
	C893.131226,1000.060913 892.942139,1000.086304 892.753052,1000.111755 
	C892.753052,1000.111755 892.381104,1000.035095 892.161377,999.655518 
	C891.267517,998.328064 890.593262,997.380127 889.606689,995.993042 
	C888.506409,997.925537 887.742615,999.267151 886.978760,1000.608704 
	C886.536316,1000.704651 886.093933,1000.800598 885.041382,1000.632202 
	C882.617554,1000.801331 880.803833,1001.234741 878.990173,1001.668213 
	C878.456726,1001.720764 877.923340,1001.773193 877.028015,1001.646729 
z"/>
<path fill="#754244" opacity="1.000000" stroke="none" 
	d="
M736.249939,457.435455 
	C736.619629,458.277069 737.013855,459.564453 737.015076,460.852234 
	C737.047974,494.674713 737.041504,528.497192 737.031250,562.319702 
	C737.031067,562.980164 736.905884,563.640625 736.619751,564.649536 
	C736.229126,553.219543 735.926086,541.441223 735.914124,529.662720 
	C735.889893,505.735687 736.023010,481.808502 736.249939,457.435455 
z"/>
<path fill="#D42027" opacity="1.000000" stroke="none" 
	d="
M1405.435547,805.353516 
	C1403.521606,799.779053 1407.218018,796.144348 1410.858643,792.199951 
	C1409.346924,796.394958 1407.537842,800.754944 1405.435547,805.353516 
z"/>
<path fill="#E08F90" opacity="1.000000" stroke="none" 
	d="
M887.340576,1000.691528 
	C887.742615,999.267151 888.506409,997.925537 889.606689,995.993042 
	C890.593262,997.380127 891.267517,998.328064 891.982239,999.592529 
	C890.582642,1000.197449 889.142578,1000.485840 887.340576,1000.691528 
z"/>
<path fill="#D42027" opacity="1.000000" stroke="none" 
	d="
M1411.385742,791.932373 
	C1409.839111,789.053467 1410.908447,786.833984 1413.967285,785.161560 
	C1413.402954,787.296692 1412.535767,789.511047 1411.385742,791.932373 
z"/>
<path fill="#E08F90" opacity="1.000000" stroke="none" 
	d="
M893.249756,1056.267334 
	C893.655090,1059.585205 893.896301,1063.345337 894.041565,1067.551025 
	C893.658936,1064.234131 893.372314,1060.471802 893.249756,1056.267334 
z"/>
<path fill="#E08F90" opacity="1.000000" stroke="none" 
	d="
M879.361450,1001.765503 
	C880.803833,1001.234741 882.617554,1000.801331 884.701111,1000.603638 
	C883.224854,1001.180542 881.478821,1001.521667 879.361450,1001.765503 
z"/>
<path fill="#E08F90" opacity="1.000000" stroke="none" 
	d="
M893.229980,1047.258911 
	C893.543335,1049.058838 893.675537,1051.291382 893.609863,1053.845703 
	C893.291016,1052.008789 893.169983,1049.850098 893.229980,1047.258911 
z"/>
<path fill="#E08F90" opacity="1.000000" stroke="none" 
	d="
M893.241333,1006.169373 
	C893.560242,1007.702881 893.685974,1009.587341 893.611389,1011.819214 
	C893.290100,1010.284485 893.169128,1008.402405 893.241333,1006.169373 
z"/>
<path fill="#B31F24" opacity="1.000000" stroke="none" 
	d="
M1363.050293,656.545532 
	C1362.776367,656.970581 1362.493164,657.002197 1361.782104,657.043701 
	C1361.680420,656.051575 1362.006348,655.049622 1362.590088,653.919067 
	C1362.912231,654.577698 1362.976562,655.364929 1363.050293,656.545532 
z"/>
<path fill="#E08F90" opacity="1.000000" stroke="none" 
	d="
M893.113892,1039.292725 
	C893.433960,1040.435913 893.616699,1042.010620 893.606079,1043.877197 
	C893.267456,1042.687500 893.122009,1041.205811 893.113892,1039.292725 
z"/>
<path fill="#E08F90" opacity="1.000000" stroke="none" 
	d="
M893.227234,1014.247498 
	C893.543152,1015.416687 893.678284,1017.007385 893.610596,1018.883667 
	C893.287354,1017.669128 893.166931,1016.169067 893.227234,1014.247498 
z"/>
<path fill="#E08F90" opacity="1.000000" stroke="none" 
	d="
M892.786499,1000.460754 
	C892.942139,1000.086304 893.131226,1000.060913 893.604004,1000.002075 
	C893.867798,1001.115906 893.847778,1002.263184 893.634399,1003.796265 
	C893.233948,1003.057983 893.026917,1001.933838 892.786499,1000.460754 
z"/>
<path fill="#B31F24" opacity="1.000000" stroke="none" 
	d="
M1363.678223,652.047485 
	C1363.768555,652.512390 1363.571289,653.107666 1363.065186,653.815186 
	C1362.967651,653.344238 1363.179199,652.761047 1363.678223,652.047485 
z"/>
<path fill="#A31D20" opacity="1.000000" stroke="none" 
	d="
M616.476379,690.228638 
	C616.320129,689.944946 616.464233,689.604187 616.869263,689.145264 
	C617.012390,689.408569 616.894592,689.790100 616.476379,690.228638 
z"/>
<path fill="#754244" opacity="1.000000" stroke="none" 
	d="
M736.929565,439.184814 
	C737.036804,439.094452 737.126831,439.569489 737.051636,439.799072 
	C736.753784,439.828308 736.702454,439.577179 736.929565,439.184814 
z"/>
<path fill="#D42027" opacity="1.000000" stroke="none" 
	d="
M1384.595703,752.916077 
	C1384.833618,740.498230 1385.746216,727.958191 1385.940186,715.407104 
	C1386.162354,701.019897 1383.487061,687.115906 1377.070679,674.079041 
	C1376.563843,673.049561 1376.292603,671.904175 1375.863281,670.442505 
	C1379.289307,673.008850 1380.840332,676.778320 1382.452148,681.108521 
	C1388.693115,697.872925 1388.230103,715.188416 1387.853271,732.489075 
	C1387.705444,739.273621 1385.966797,746.023376 1384.595703,752.916077 
z"/>
<path fill="#D42027" opacity="1.000000" stroke="none" 
	d="
M1377.532471,785.016968 
	C1379.251221,775.212952 1381.341919,765.383423 1383.694824,755.266357 
	C1384.132202,757.331665 1384.746094,759.751587 1384.398682,762.024597 
	C1383.455322,768.198669 1382.247192,774.343872 1380.822510,780.425232 
	C1380.433838,782.084106 1378.908325,783.476685 1377.532471,785.016968 
z"/>
<path fill="#D42027" opacity="1.000000" stroke="none" 
	d="
M1373.509277,797.958740 
	C1374.260620,794.519531 1375.343994,790.999023 1376.676758,787.227295 
	C1378.135742,791.243164 1377.239136,794.914246 1373.509277,797.958740 
z"/>
</svg>